<svg xmlns="http://www.w3.org/2000/svg" width="972.987" height="655.627" viewBox="0 0 972.987 655.627"><defs><style>.a{fill:#fff200;}.b{fill:#fff;}.c{fill:#fff64d;}.d{fill:#07085b;}.e{fill:#55769f;}.f{fill:#ff5b7e;}.g{fill:#e03268;}.h{fill:#8fd0d6;}.i{fill:#cbefef;}.j{fill:#50aab4;}.k{fill:#72c3c9;}.l{fill:#8fc500;}.m{fill:#cfe8ea;}.n{fill:#74bdc1;}.o{fill:#f4a640;}.p{fill:#f9cc4b;}.q{fill:#fce3a5;}.r{fill:#fff300;}.s{fill:#82c4c7;}.t{fill:#20216c;}.u{fill:#333;}.v{fill:#3cb4c5;}.w{fill:#2599ae;}.x{fill:#e87b50;}.y{fill:#cfe4ff;}.z{fill:#fdb137;}.aa{fill:#feb546;}.ab{fill:#f9c27a;}.ac{fill:#e2881e;}.ad{fill:#6db1b5;}.ae{fill:#ffc0bb;}.af{fill:#f99893;}.ag{fill:#daeef7;}.ah{fill:#191919;}.ai{fill:#fd7982;}.aj{fill:#fdb54f;}.ak{fill:#9a5874;}.al{fill:#fda19a;}.am{fill:#fda8a3;}.an{fill:#c8eef1;}.ao{fill:#312b28;}.ap{fill:#3a989c;}</style></defs><g transform="translate(-38.107 -58.857)"><path class="a" d="M232.079,673.159s-129.006-73.617-58-254.246S428.759,285.4,496.944,204.12,702.506-.858,853.661,91.87s113.961,238.758,168.348,297.515S1189,699.5,856.954,712.1s-624.875-38.94-624.875-38.94" transform="translate(-73.99)"/><path class="b" d="M2133.391,154.462h0m-.212-.134.008.005-.008-.005m-.216-.137.023.015-.023-.015m-.211-.133.025.016-.025-.016m-.215-.135.032.021-.032-.021m-.215-.135.039.025-.039-.025m-.215-.135.044.028-.044-.028m-.214-.134.047.029-.047-.029m-.216-.135.052.033-.052-.033m-.216-.135.056.035-.056-.035m-.219-.137.063.04-.063-.04m-.215-.134.065.041-.065-.041m-.218-.136.071.044-.071-.044m-.214-.133.07.044-.07-.044m-.219-.135.074.046-.074-.046m-.219-.135.079.049-.079-.049m-.227-.14.09.055-.09-.055m-.244-.15.119.073-.119-.073m-.314-.193h0l.217.133-.217-.133h0" transform="translate(-1349.702 -60.087)"/><path class="c" d="M1717.305,146.636c-14.02,7.609-26.247,18.679-40.948,25.012-13.064,5.628-27.354,7.212-41.678,7.212-5.014,0-10.031-.194-15-.477-3.458-.2-7.023-.4-10.563-.4-8.193,0-16.264,1.1-22.632,5.966-6.679,5.1-10.121,13.449-16.335,19.11-7.514,6.844-18.046,8.948-27.9,11.447-12.506,3.171-25.153,7.632-34.565,16.455s-14.847,22.939-10.292,35.009c5.784,15.326,24.243,21.368,40.565,22.758,20.884,1.778,42.372-.752,62.5,5.075,13.68,3.96,25.953,11.574,38.724,17.877q4.926,2.431,9.956,4.617a198.993,198.993,0,0,1,30.592-21.054,267.655,267.655,0,0,1,1.44,32.8c9.157,2.855,18.421,5.408,27.692,7.84,16.669,4.371,33.664,8.4,50.865,8.4q1.553,0,3.105-.044c13.546-.392,26.9-3.409,40.428-4.133,14.712-.787,30.084,1.042,43.674-4.646.258-.108.51-.228.765-.342a476.231,476.231,0,0,0-15.978-52.575c-.3.085-.593.165-.887.253-8.686,2.609-16.828,6.823-25.534,9.367a69.645,69.645,0,0,1-19.516,2.765,70.513,70.513,0,0,1-30.155-6.725c-17.253-8.2-31.078-23.382-49.516-28.371-13.44-3.637-27.722-1.376-41.574-2.783s-29.057-8.456-32.4-21.971a11.465,11.465,0,0,1,.371-7.692c2.394-4.954,8.937-5.859,14.433-6.11,7.149-.328,14.323-.655,21.481-.655a158.3,158.3,0,0,1,20.585,1.2c13.613,1.784,27.334,5.905,40.858,5.905a54.118,54.118,0,0,0,12.188-1.3c5.324-1.224,10.392-3.383,15.683-4.746a64.236,64.236,0,0,1,16.1-1.907c9.023,0,18.152,1.508,27.092,3.279-17.791-25.639-42.106-50.232-76.471-72.012h0l-.2-.129-.008-.005-.193-.122-.023-.015-.186-.117-.026-.016-.182-.115-.032-.021-.176-.11-.039-.025-.171-.107-.044-.028-.167-.1-.047-.029-.164-.1-.052-.033-.16-.1-.056-.035-.155-.1-.064-.04-.15-.093-.065-.041-.147-.092-.071-.044-.144-.089-.07-.044-.145-.09-.074-.046-.14-.087-.078-.049-.137-.085-.089-.055-.125-.076-.119-.073-.1-.06-.217-.133h0q-1.566-.961-3.13-1.887" transform="translate(-940.764 -56.652)"/><path class="b" d="M1080.624,466.556a110.1,110.1,0,0,1-23.011,20.262l.007,0a110.012,110.012,0,0,0,23-20.264m.08-.095-.075.089.075-.089m.076-.09-.071.084.071-.084m.078-.092-.071.083.071-.083m.085-.1h0l-.07.084.07-.084h0m.133-.159-.029.035.029-.035m.142-.169-.049.058.049-.058m.123-.147-.084.1.084-.1m.1-.123-.048.057.048-.057m.138-.165-.085.1.085-.1m.1-.12-.052.062.052-.062m.126-.15-.073.087.073-.087m.089-.1-.009.011.009-.011m.121-.144-.006.007.006-.007" transform="translate(-657.989 -262.057)"/><path class="c" d="M621.428,415.728c-5.4,5.95-10.489,11.791-15.249,17.435l-.006.007-.115.137-.009.011-.079.094-.073.087-.053.063-.052.062-.049.058-.085.1-.053.064-.048.057-.056.066-.084.1-.039.046-.049.058-.094.111-.029.035-.1.124h0l-.07.084-.015.018-.071.083-.007.009-.071.084,0,.005-.076.089,0,.006a110.014,110.014,0,0,1-23,20.264,90.579,90.579,0,0,1,17.387,6.68c4.648,2.366,9.61,5.947,9.9,11.155.283,5.071-4.048,9.161-8.367,11.834-11.831,7.324-26.738,10.389-35.7,21.032-7.914,9.4-10.129,23.645-20.591,30.089-4.668,2.875-10.3,3.677-15.764,4.079-18.19,1.338-37.222-.93-54.065,6.069-3.694,1.535-7.214,3.5-11.006,4.767-4.964,1.663-10.245,2.1-15.471,2.408q-11.422.685-22.875.684a385.238,385.238,0,0,1-68.13-6.077,210.824,210.824,0,0,0-36.767,35.172l11.4,5.273c10.555,4.88,21.279,9.814,32.765,11.625a77.431,77.431,0,0,0,12.075.873c6.653,0,13.336-.655,19.967-1.311,12.994-1.286,26.094-2.592,38.558-6.485,13.735-4.29,26.45-11.649,40.465-14.913a102.474,102.474,0,0,1,23.352-2.3c7.974,0,16,.527,23.96.795q5,.168,10.015.176c17.751,0,35.561-1.8,52.231-7.733,19.808-7.053,37.987-20.537,47.194-39.44,4.869-10,7.326-21.5,14.908-29.634,7.848-8.418,19.845-11.715,28.424-19.386,12.72-11.373,15.345-32.4,5.812-46.552A10.038,10.038,0,0,0,678,430.476a7.819,7.819,0,0,0-3.67-.778,33.3,33.3,0,0,0-3.937.349,56.482,56.482,0,0,1-6.77.406,57.2,57.2,0,0,1-20.926-3.962c-7.363-2.9-14.151-7.345-21.266-10.764" transform="translate(-182.147 -230.324)"/><path class="d" d="M1929.126,565.712c11.372,103.429-46.954,250.33-46.954,250.33s79.708-75.067,77.972-163.975l-25.5-.441s13.134-8.567,24.29-15.552C1955.869,612.946,1946.833,589.15,1929.126,565.712Z" transform="translate(-1190.158 -327.124)"/><path class="e" d="M1754.368,685.362l16.107-9.516-13.91-2.031a140.7,140.7,0,0,1,20.683-45.985c10.507,3.187,22.529,6.527,22.529,6.527l-13.285-18.941a214.149,214.149,0,0,1,59.334-49.7c11.372,103.429-46.953,250.33-46.953,250.33-39.837-50.826-49.656-94.6-44.506-130.68" transform="translate(-1106.86 -327.124)"/><path class="f" d="M1966.391,853.786a129.383,129.383,0,0,0-42.747,29.6c1.6,7.211,3.328,15.89,3.328,15.89l-10.739-7.475c-39.146,48.28-38.613,113.614-38.613,113.614,38.45-15.842,61.431-36.9,74.9-58.264-2.741-3.984-6.9-9.838-6.9-9.838l10.98,2.834a114.561,114.561,0,0,0,11.318-31.5c-5.725-1.431-12.143-3.236-12.143-3.236l13.683-6.376C1972.543,873.1,1966.391,853.786,1966.391,853.786Z" transform="translate(-1187.22 -513.046)"/><path class="g" d="M1952.517,947.151c-2.741-3.984-6.9-9.838-6.9-9.838l10.98,2.834a114.557,114.557,0,0,0,11.318-31.5c-5.725-1.431-12.143-3.236-12.143-3.236l13.683-6.376c3.086-25.928-3.066-45.245-3.066-45.245-49.409,53.334-88.771,151.629-88.771,151.629C1916.071,989.573,1939.052,968.517,1952.517,947.151Z" transform="translate(-1187.221 -513.046)"/><path class="h" d="M1933.063,1050.148l-131.288,231.081-117.431-66.718L1815.632,983.43l117.431,66.718" transform="translate(-1062.48 -596.719)"/><path class="i" d="M1941.128,1073.87l-122.777,216.1-106.271-60.377,122.777-216.1,106.271,60.378m-125.793,205.151,114.843-202.136-92.306-52.443L1723.03,1226.578l92.306,52.443" transform="translate(-1080.381 -616.121)"/><path class="i" d="M1962.247,1266.208c26.456,15.031,36.811,46.739,23.128,70.822s-46.221,31.422-72.678,16.39-36.811-46.739-23.128-70.822,46.221-31.422,72.678-16.39" transform="translate(-1191.035 -774.187)"/><path class="h" d="M1962.082,1338.262c-2.959-.781-5.695-.9-8.359.989a7.915,7.915,0,0,0,.921.749c4.1,2.366,8.227,4.692,12.308,7.094a1.517,1.517,0,0,0,2.16-.283,66.053,66.053,0,0,1,5.593-4.606c6.848-4.987,13.979-4.093,20.354.626,7.678,5.685,9.829,12.916,6.957,22.083-.524,1.673-.133,2.464,1.326,3.129,1.063.485,2.045,1.15,3.164,1.793l-3.044,5.3-4.758-2.735c-8.5,10.48-18.8,9.184-25.262,6.112,1.456-3.329,2.913-6.663,4.408-10.082a14.619,14.619,0,0,0,11.742-1.238l-6.217-3.572c-2.688-1.544-5.4-3.043-8.051-4.654a1.763,1.763,0,0,0-2.491.217,23.548,23.548,0,0,1-9.482,5.661c-7.436,2.065-13.695-.465-18.728-5.683-4.7-4.872-5.378-10.951-3.172-17.327.147-.426.3-.849.438-1.278a5.95,5.95,0,0,0,.116-.645l-3.974-2.283,3.09-5.378c.945.544,1.948,1.035,2.854,1.664.96.666,1.53.419,2.23-.437,3.122-3.823,7.033-6.283,12.076-6.611a17.618,17.618,0,0,1,7.923,1.345l-4.123,10.053m16.7,15.494,14.238,8.182c1.567-3.46.177-7.766-3.22-10.126-3.323-2.308-7.557-1.63-11.019,1.943m-28.408-8.926c-.5,3.742,1.081,7.132,3.768,8.468a7.772,7.772,0,0,0,8.814-1.238l-12.582-7.23" transform="translate(-1226.21 -818.347)"/><path class="i" d="M1900.965,1602.549a7.322,7.322,0,1,0,2.749,9.983,7.322,7.322,0,0,0-2.749-9.983" transform="translate(-1195.227 -995.68)"/><path class="i" d="M2150.853,1162.719a7.321,7.321,0,1,0,2.749,9.983A7.322,7.322,0,0,0,2150.853,1162.719Z" transform="translate(-1356.504 -711.814)"/><path class="j" d="M2201.144,1281.183l-36.792,14.214a55.246,55.246,0,0,1,4.937,9.9l22.988-8.51,8.867-15.607m21.292-8.226-9.458,3.654-9,15.849,9.189-3.4c1.047-2.508,9.273-16.1,9.273-16.1" transform="translate(-1372.277 -783.579)"/><path class="k" d="M2263.8,1283.261l-11.834,4.572-8.867,15.608,11.7-4.33,9-15.849" transform="translate(-1423.103 -790.229)"/><path class="k" d="M2079.357,1357.009q.992.541,1.968,1.1c-.1-.076-.2-.15-.307-.223a7.68,7.68,0,0,0-1.66-.88m30.139-20.768-26.933,10.405a23.09,23.09,0,0,1,3.706,2.261,22.287,22.287,0,0,1,5.489,5.631l22.675-8.394a55.233,55.233,0,0,0-4.937-9.9" transform="translate(-1317.421 -824.423)"/><path class="j" d="M2063.118,1365.584l-13.891,5.367a95.781,95.781,0,0,1,10.684,5,7.686,7.686,0,0,1,1.66.88c.1.073.207.147.308.223l.3.177,10.13-3.75a22.294,22.294,0,0,0-5.489-5.631,23.131,23.131,0,0,0-3.707-2.261" transform="translate(-1297.976 -843.36)"/><path class="h" d="M2094.209,1371.368l-249.241,92.271-46.891-126.659,249.241-92.271,46.89,126.66" transform="translate(-1135.884 -765.348)"/><path class="i" d="M2102.663,1384.738l-233.084,86.289L1827.145,1356.4l233.084-86.29,42.434,114.623m-228.341,75.97,218.021-80.713-36.858-99.56-218.021,80.713,36.858,99.56" transform="translate(-1154.644 -781.745)"/><path class="i" d="M2170.664,1437.158c10.564,28.535-1.93,59.464-27.905,69.08s-55.6-5.72-66.161-34.256,1.93-59.463,27.905-69.079,55.6,5.72,66.161,34.256" transform="translate(-1313.217 -865.594)"/><path class="h" d="M2172.923,1467.809c-1.761-2.5-3.779-4.355-7.033-4.626a8.062,8.062,0,0,0,.223,1.167c1.615,4.45,3.273,8.887,4.849,13.352.345.978.8,1.216,1.835,1.174a65.877,65.877,0,0,1,7.244.078c8.451.594,13.332,5.869,15.17,13.584,2.214,9.294-.8,16.211-8.9,21.376-1.478.942-1.688,1.8-1,3.248.5,1.056.824,2.2,1.266,3.409l-5.739,2.093-1.88-5.156c-13.25,2.546-20.3-5.078-23.264-11.589l9.865-4.876a14.618,14.618,0,0,0,9.781,6.614c-.9-2.474-1.679-4.605-2.457-6.736-1.062-2.912-2.174-5.808-3.163-8.745a1.762,1.762,0,0,0-2.046-1.438,23.563,23.563,0,0,1-10.9-1.775c-7.018-3.207-10.178-9.174-10.669-16.406-.459-6.754,2.936-11.842,8.73-15.3.387-.231.777-.456,1.158-.7a5.854,5.854,0,0,0,.5-.418c-.5-1.367-1.012-2.775-1.57-4.306l5.827-2.125c.374,1.025.824,2.046,1.113,3.111.306,1.128.9,1.306,1.988,1.1,4.85-.915,9.427-.278,13.5,2.718a17.624,17.624,0,0,1,5.2,6.13l-9.627,5.037m2.8,22.611c1.911,5.239,3.767,10.33,5.626,15.428,3.427-1.639,5.135-5.828,4.056-9.821-1.056-3.906-4.732-6.113-9.682-5.608M2159.74,1465.3c-2.791,2.542-3.765,6.152-2.569,8.9a7.769,7.769,0,0,0,7.54,4.729c-1.63-4.468-3.264-8.949-4.971-13.633" transform="translate(-1360.476 -897.656)"/><path class="i" d="M1973.064,1624.946a7.322,7.322,0,1,0-4.324,9.408,7.322,7.322,0,0,0,4.324-9.408" transform="translate(-1239.662 -1007.667)"/><path class="i" d="M2447.458,1449.322a7.321,7.321,0,1,0-4.324,9.408A7.322,7.322,0,0,0,2447.458,1449.322Z" transform="translate(-1545.836 -894.319)"/><path class="h" d="M2028.774,1653.467l-265.771.818-.416-135.06,265.771-.818.416,135.06" transform="translate(-1112.978 -941.992)"/><path class="i" d="M2035.855,1658.8l-248.543.766-.376-122.225,248.542-.765.377,122.224m-240.537-7.29,232.481-.716-.327-106.163-232.481.716.327,106.163" transform="translate(-1128.693 -953.721)"/><path class="i" d="M2097.051,1610.116c.094,30.428-22.284,55.164-49.983,55.249s-50.228-24.512-50.322-54.94,22.285-55.164,49.983-55.249,50.229,24.512,50.322,54.94" transform="translate(-1264.104 -965.723)"/><path class="h" d="M2108.527,1624.112c-.792-2.957-2.048-5.39-5.01-6.764a7.987,7.987,0,0,0-.193,1.172c-.016,4.735.014,9.471-.044,14.206-.013,1.037.333,1.418,1.319,1.735a65.723,65.723,0,0,1,6.774,2.567c7.73,3.467,10.5,10.1,9.566,17.976-1.12,9.488-6.328,14.945-15.712,17.006-1.712.376-2.2,1.108-2.057,2.706.107,1.164.017,2.346.015,3.637l-6.108-.011c0-1.856.006-3.69.01-5.488-13.317-2.172-17.308-11.755-17.852-18.891l10.941-1.181a14.616,14.616,0,0,0,6.905,9.577c0-2.634.009-4.9.013-7.17,0-3.1-.042-6.2.041-9.3a1.762,1.762,0,0,0-1.426-2.054,23.555,23.555,0,0,1-9.622-5.419c-5.485-5.428-6.4-12.117-4.369-19.077,1.9-6.5,6.834-10.107,13.464-11.359.442-.084.886-.16,1.327-.254a6.016,6.016,0,0,0,.617-.219c0-1.455.005-2.953.008-4.584l6.2.011c0,1.091.069,2.2-.026,3.3-.1,1.164.4,1.536,1.487,1.718,4.869.811,8.947,2.984,11.736,7.2a17.628,17.628,0,0,1,2.768,7.544Zm-5.151,22.194c-.01,5.577-.02,11-.03,16.422,3.781-.359,6.828-3.7,7.189-7.823C2110.888,1650.874,2108.2,1647.536,2103.376,1646.307Zm-6.362-29.09c-3.5,1.426-5.653,4.48-5.478,7.476a7.77,7.77,0,0,0,5.451,7.036C2097,1626.971,2097,1622.2,2097.014,1617.216Z" transform="translate(-1317.343 -996.538)"/><path class="i" d="M1880.149,1697.427a7.322,7.322,0,1,0-7.3,7.344,7.321,7.321,0,0,0,7.3-7.344" transform="translate(-1179.402 -1052.821)"/><path class="i" d="M2386.006,1695.869a7.322,7.322,0,1,0-7.3,7.344A7.322,7.322,0,0,0,2386.006,1695.869Z" transform="translate(-1505.882 -1051.815)"/><path class="l" d="M2541.042,1636l-.019.007.019-.007" transform="translate(-1615.38 -1017.887)"/><path class="j" d="M2412.265,1533.269l-10.148,3.757.021,6.776,10.123-3.688.019-.007-.015-6.838m-.1-45.848-70.651.224a61.179,61.179,0,0,1,2.549,5.913q.916,2.474,1.6,4.969l56.331-.119.093,30.063,10.156-3.759-.08-37.292h0" transform="translate(-1486.618 -921.994)"/><path class="k" d="M2522.5,1524.713l-10.156,3.759.026,8.554,10.148-3.757-.019-8.556m-.08-37.292h0" transform="translate(-1596.87 -921.994)"/><path class="k" d="M2183.715,1490.045q-.26.237-.5.486.984,1.661,1.9,3.368l-1.405-3.854m55.634-1.991-34.054.108-8.4,4.393c-1.457-2.071-3.09-3.7-5.453-4.349l-1.533,0a4.767,4.767,0,0,0,.176.885c1.2,3.317,2.432,6.626,3.631,9.945l49.781-.105q-.688-2.491-1.6-4.969a61.074,61.074,0,0,0-2.55-5.913" transform="translate(-1384.452 -922.403)"/><path class="j" d="M2187.361,1488.408l-8.1.026q.717,1.137,1.4,2.294c.16-.166.325-.328.5-.486l1.405,3.854q1.365,2.532,2.581,5.155l6.019-.012c-1.2-3.319-2.427-6.628-3.631-9.945a4.721,4.721,0,0,1-.176-.885m15.382-.049-13.85.044c2.364.652,4,2.278,5.453,4.349l8.4-4.393" transform="translate(-1381.9 -922.599)"/><rect class="m" width="56.526" height="58.606" transform="translate(210.686 348.783) rotate(-14.009)"/><rect class="m" width="56.526" height="58.606" transform="translate(38.107 391.839) rotate(-14.008)"/><path class="n" d="M648.859,1155.129,609.718,998.241l-54.845,13.683,39.641,158.893.279.809a108.682,108.682,0,0,1,3.98,22.968c.722,10.788.081,26.343-7.076,39.188-6.968,12.506-19.258,21.014-37.527,25.97q-2.418.551-4.753.963h0l13.7,54.924q1.262-.256,2.529-.533l.016.063c.734-.183,1.463-.372,2.189-.564q1.1-.258,2.2-.531l-.016-.063c16.253-4.541,30.5-11.316,42.413-20.175a102.572,102.572,0,0,0,28.891-33.02,114.4,114.4,0,0,0,12.683-38.455,148.656,148.656,0,0,0,.992-33.673,163.675,163.675,0,0,0-6.159-33.56" transform="translate(-330 -606.278)"/><path class="f" d="M204.662,1332.82c-12.352-7.978-20.225-21.409-24.654-31.271a108.712,108.712,0,0,1-7.275-22.146l-.134-.845-39.642-158.893-54.844,13.683,39.139,156.888a163.744,163.744,0,0,0,10.328,32.52,148.639,148.639,0,0,0,16.694,29.26,114.4,114.4,0,0,0,29.26,27.991,102.568,102.568,0,0,0,41.015,15.579,127.143,127.143,0,0,0,44.391-1.579l-13.7-54.924C228.965,1341.972,215.637,1339.909,204.662,1332.82Z" transform="translate(-25.821 -684.644)"/><path class="o" d="M1871,1457a96.116,96.116,0,1,1-97.137-95.084A96.115,96.115,0,0,1,1871,1457" transform="translate(-1058.882 -840.991)"/><path class="p" d="M1878.928,1474.712a86.443,86.443,0,1,1-87.362-85.515,86.443,86.443,0,0,1,87.362,85.515" transform="translate(-1076.487 -858.597)"/><path class="o" d="M1803.39,1566.6a80.93,80.93,0,1,1,80.061-81.79,81.022,81.022,0,0,1-80.061,81.79m-1.7-158.877a77.956,77.956,0,1,0,78.785,77.119,78.045,78.045,0,0,0-78.785-77.119" transform="translate(-1086.522 -868.632)"/><g transform="translate(661.703 571.508)"><path class="q" d="M1867.571,1580.916l-13.83-39.474.182-.064,18.89,24.7,4.65-1.629-.567-31.123.183-.064,13.83,39.474,9.3-3.258-22.742-64.91-9.025,3.162.191,38.522-.182.064-23.984-30.185-8.934,3.13,22.742,64.91Zm-38.836,13.607-6.8-19.418,1.724-11.147,20.669,25.1,9.845-3.45-28.681-33.657,3.569-30.422-9.3,3.258-3.2,34.388-.183.064-10.381-29.628-9.3,3.258,22.742,64.91Z" transform="translate(-1796.695 -1504.571)"/></g><path class="d" d="M434.323,1473.471s42.225-58.375,20.305-69.176c0,0-3.917-6.2-19.68,15.954,0,0-9.74,3.2-10.3-8.093s15.44-28.485,5.241-38.28-15.465,7.829-22.653,11.177-3.784-41.693-13.751-46.525-12.681,12.938-18.261,15.011c-2.607.969-7.593-9.967-14.885-20.9-8.319-12.475-19.639-24.951-33.851-19.752-26.669,9.755,3.8,29.4,16.593,41.565s-13.618,5.374-16.377,20.921,44.38,3.026,40.11,18.147-17.779,6.5-20.3,17.8c-2.211,9.917,10.556,9.271,22.515,8.624,10.059-.544,19.546-1.088,19.065,4.656-.84,10.025-17.776,3.431-19.581,11.18s27.518,35.527,65.8,37.7" transform="translate(-179.276 -808.568)"/><path class="r" d="M389.045,1550.012l0,0,0,0m.051-.063-.048.06.048-.06h0M346.4,1491.4v0" transform="translate(-198.97 -924.565)"/><path class="s" d="M649.837,1767.262h0m-.034,0,.033,0-.033,0m.035,0h0m.006-.008,0,.007,0-.007m.264-.369c-.147.208-.237.332-.263.368.026-.036.116-.161.263-.368h0" transform="translate(-394.788 -1102.359)"/><path class="t" d="M333.551,1319.934c-.219.115-.432.232-.639.35,9.475,8.892,27.848,26.768,46.974,48.844,3.216,3.713,6.538,7.644,9.9,11.755a167.258,167.258,0,0,0-20.447-2.138c-2.283-.1-4.781-.167-7.44-.167a138.308,138.308,0,0,0-24.178,2.012c-.007.038-.015.074-.022.112h0l-.006.035v.005c-.033.194-.057.383-.075.569a137.25,137.25,0,0,1,24.272-2.041c2.647,0,5.134.065,7.406.166a161.468,161.468,0,0,1,21.164,2.272c7.441,9.13,15.069,19.127,22.216,29.582a63.659,63.659,0,0,0-7.8-.435c-16.008,0-36.625,4.512-47.586,7.227-.02.248-.029.487-.028.72,10.876-2.7,31.578-7.257,47.593-7.257a61.322,61.322,0,0,1,8.343.512c10.131,14.9,19.248,30.71,25.425,46.246a38.2,38.2,0,0,1-6.124.473c-12.237,0-25.545-5.141-35.211-9.881a166.037,166.037,0,0,1-16.9-9.613l-.048.06,0,0,0,0a4.247,4.247,0,0,0-.337.5,166.736,166.736,0,0,0,16.975,9.659c9.739,4.777,23.158,9.957,35.535,9.957a38.687,38.687,0,0,0,6.378-.506,125.4,125.4,0,0,1,6.066,19.815l.327.022.033,0h0l0-.007h0l.263-.368a139.477,139.477,0,0,0-9.834-28.651q1.477-.757,2.908-1.6a57.627,57.627,0,0,0,14.907-12.8,73.582,73.582,0,0,0,10.575-17.247c1.191-2.678,2.167-5.253,2.963-7.622q-.29-.2-.6-.386c-.8,2.4-1.791,5.019-3,7.745-4.457,10.015-12.938,23.535-28.04,31.284a241.22,241.22,0,0,0-14.279-26.184c4.008-22.823,12.011-35.573,18.02-42.25.521-.579,1.035-1.119,1.542-1.631-.173-.163-.345-.317-.516-.465-.493.5-.993,1.025-1.5,1.587-6.018,6.67-14.007,19.335-18.093,41.883l-.071-.114c-5.848-9.317-12.631-19.005-20.282-28.982a165.17,165.17,0,0,1-1.374-22.159c.056-8.286.858-18.839,3.868-27.594a6.8,6.8,0,0,0-.683-.134c-3.016,8.831-3.822,19.411-3.878,27.723a169.3,169.3,0,0,0,1.225,21.071q-8.783-11.382-19.031-23.216c-19.032-21.967-37.322-39.783-46.858-48.741" transform="translate(-190.267 -813.898)"/><path class="h" d="M395.147,1738.818s-37.27-41.849-106.934-39l12.08,16.677-19.467-15.285s-40.391,3.351-67.912,13.21c0,0,59.151,31.157,74.085,33.893l19.936-5.925-10.8,14.9s32.546,18.094,66.021,14.391S395.147,1738.818,395.147,1738.818Z" transform="translate(-112.82 -1058.983)"/><path class="u" d="M1198.8,916.316h217.083A17.114,17.114,0,0,1,1433,933.43v317.343a17.114,17.114,0,0,1-17.115,17.115H1198.8a17.114,17.114,0,0,1-17.114-17.115V933.43a17.114,17.114,0,0,1,17.114-17.114" transform="translate(-738.064 -553.403)"/><path class="v" d="M1453.923,1051.5H1245.5V997.864h208.424V1051.5" transform="translate(-779.25 -606.034)"/><path class="w" d="M1453.923,997.864H1245.5V1051.5h5.53v-45.912h202.895v-7.721" transform="translate(-779.25 -606.034)"/><path class="x" d="M9.661,0H50.144A9.661,9.661,0,0,1,59.8,9.661v0a9.661,9.661,0,0,1-9.661,9.661H9.661A9.661,9.661,0,0,1,0,9.661v0A9.661,9.661,0,0,1,9.661,0Z" transform="translate(466.249 460.762)"/><rect class="x" width="59.804" height="19.321" rx="9.661" transform="translate(540.559 460.762)"/><path class="x" d="M9.66,0H50.143A9.661,9.661,0,0,1,59.8,9.661v0a9.66,9.66,0,0,1-9.66,9.66H9.66A9.66,9.66,0,0,1,0,9.661v0A9.66,9.66,0,0,1,9.66,0Z" transform="translate(614.869 460.762)"/><path class="y" d="M21.658,0h2.966A21.658,21.658,0,0,1,46.282,21.658v0A21.657,21.657,0,0,1,24.625,43.316H21.658A21.658,21.658,0,0,1,0,21.658v0A21.658,21.658,0,0,1,21.658,0Z" transform="translate(466.249 495.383)"/><path class="y" d="M21.658,0h2.967A21.657,21.657,0,0,1,46.282,21.657v0A21.657,21.657,0,0,1,24.625,43.316H21.658A21.658,21.658,0,0,1,0,21.658v0A21.658,21.658,0,0,1,21.658,0Z" transform="translate(520.296 495.383)"/><path class="y" d="M21.658,0h2.966A21.658,21.658,0,0,1,46.282,21.658v0A21.657,21.657,0,0,1,24.625,43.316H21.658A21.658,21.658,0,0,1,0,21.658v0A21.658,21.658,0,0,1,21.658,0Z" transform="translate(574.344 495.383)"/><path class="y" d="M21.658,0h2.966A21.658,21.658,0,0,1,46.282,21.658v0A21.658,21.658,0,0,1,24.624,43.316H21.658A21.658,21.658,0,0,1,0,21.658v0A21.658,21.658,0,0,1,21.658,0Z" transform="translate(466.249 548.783)"/><path class="y" d="M21.658,0h2.966A21.658,21.658,0,0,1,46.282,21.658v0A21.658,21.658,0,0,1,24.624,43.316H21.658A21.658,21.658,0,0,1,0,21.658v0A21.658,21.658,0,0,1,21.658,0Z" transform="translate(520.296 548.783)"/><rect class="y" width="46.282" height="43.316" rx="21.658" transform="translate(574.344 548.783)"/><path class="z" d="M1739.6,1289.892H1712.18a9.429,9.429,0,0,0-9.429,9.428v77.859a9.429,9.429,0,0,0,9.429,9.429H1739.6a9.429,9.429,0,0,0,9.429-9.429V1299.32A9.429,9.429,0,0,0,1739.6,1289.892Z" transform="translate(-1074.36 -794.509)"/><path class="y" d="M21.658,0h2.966A21.658,21.658,0,0,1,46.282,21.658v0A21.658,21.658,0,0,1,24.624,43.316H21.658A21.658,21.658,0,0,1,0,21.658v0A21.658,21.658,0,0,1,21.658,0Z" transform="translate(466.249 602.183)"/><path class="y" d="M21.658,0h2.966A21.658,21.658,0,0,1,46.282,21.658v0A21.658,21.658,0,0,1,24.624,43.316H21.658A21.658,21.658,0,0,1,0,21.658v0A21.658,21.658,0,0,1,21.658,0Z" transform="translate(520.296 602.183)"/><rect class="y" width="46.282" height="43.316" rx="21.658" transform="translate(574.344 602.183)"/><rect class="z" width="46.282" height="43.316" rx="21.658" transform="translate(628.391 602.183)"/><path class="y" d="M21.657,0h2.967A21.657,21.657,0,0,1,46.282,21.657v0A21.658,21.658,0,0,1,24.624,43.316H21.658A21.658,21.658,0,0,1,0,21.658v0A21.657,21.657,0,0,1,21.657,0Z" transform="translate(466.249 655.583)"/><path class="y" d="M21.657,0h2.967A21.657,21.657,0,0,1,46.282,21.657v0A21.658,21.658,0,0,1,24.624,43.316H21.658A21.658,21.658,0,0,1,0,21.657v0A21.657,21.657,0,0,1,21.657,0Z" transform="translate(520.296 655.583)"/><path class="z" d="M21.657,0h2.967A21.658,21.658,0,0,1,46.282,21.658v0A21.658,21.658,0,0,1,24.624,43.316H21.658A21.658,21.658,0,0,1,0,21.658v0A21.657,21.657,0,0,1,21.657,0Z" transform="translate(574.344 655.583)"/><path class="x" d="M21.657,0h2.967A21.658,21.658,0,0,1,46.282,21.658v0A21.658,21.658,0,0,1,24.624,43.316H21.658A21.658,21.658,0,0,1,0,21.658v0A21.657,21.657,0,0,1,21.657,0Z" transform="translate(628.391 655.583)"/><path class="b" d="M1304.928,1620.058v2.19l-10.685,22.351h-3.436l10.647-21.709v-.076h-12.006v-2.756Z" transform="translate(-807.615 -1007.598)"/><path class="b" d="M1440.326,1637.613c0-3.1,1.85-5.285,4.87-6.569l-.038-.113c-2.719-1.284-3.889-3.4-3.889-5.512,0-3.889,3.284-6.532,7.588-6.532,4.757,0,7.136,2.982,7.136,6.041,0,2.076-1.019,4.3-4.04,5.739v.113c3.058,1.208,4.946,3.36,4.946,6.343,0,4.266-3.662,7.136-8.344,7.136C1443.422,1644.258,1440.326,1641.2,1440.326,1637.613Zm13.214-.151c0-2.983-2.077-4.418-5.4-5.361-2.87.83-4.417,2.718-4.417,5.059-.114,2.491,1.774,4.681,4.908,4.681C1451.614,1641.842,1453.54,1639.992,1453.54,1637.462Zm-9.137-12.271c0,2.454,1.85,3.775,4.681,4.531,2.115-.717,3.738-2.228,3.738-4.455a3.814,3.814,0,0,0-4.153-4C1445.914,1621.266,1444.4,1623.078,1444.4,1625.192Z" transform="translate(-904.991 -1006.842)"/><path class="b" d="M1456.87,1780.05c0,8.344-3.1,12.95-8.533,12.95-4.795,0-8.042-4.493-8.117-12.61,0-8.23,3.549-12.761,8.532-12.761C1453.925,1767.629,1456.87,1772.235,1456.87,1780.05Zm-13.328.378c0,6.38,1.964,10,4.984,10,3.4,0,5.021-3.964,5.021-10.231,0-6.041-1.548-10.005-4.984-10.005C1445.656,1770.2,1443.542,1773.745,1443.542,1780.428Z" transform="translate(-904.923 -1102.84)"/><path class="b" d="M1597.434,1641.5a13.849,13.849,0,0,0,2.68-.113,9.255,9.255,0,0,0,5.135-2.378,10.77,10.77,0,0,0,3.247-6.531h-.113a7.2,7.2,0,0,1-5.776,2.643c-4.418,0-7.25-3.323-7.25-7.514a8.414,8.414,0,0,1,8.382-8.721c5.021,0,8.117,4.078,8.117,10.345,0,5.4-1.812,9.175-4.229,11.515a12.274,12.274,0,0,1-7.136,3.285,15.464,15.464,0,0,1-3.058.189Zm1.208-14.12c0,3.058,1.85,5.21,4.719,5.21a5.492,5.492,0,0,0,4.833-2.567,2.194,2.194,0,0,0,.3-1.208c0-4.191-1.548-7.4-5.021-7.4C1600.643,1621.417,1598.642,1623.908,1598.642,1627.382Z" transform="translate(-1005.048 -1006.842)"/><path class="b" d="M1296.379,1491.058v-6.682h-11.4v-2.19l10.949-15.668h3.586v15.253h3.436v2.605h-3.436v6.682Zm0-9.288v-8.193q0-1.926.113-3.851h-.113c-.755,1.435-1.359,2.492-2.039,3.625l-6,8.343v.076Z" transform="translate(-804.729 -908.503)"/><path class="b" d="M1455.62,1469.311h-9.363l-.944,6.305a13.148,13.148,0,0,1,2-.151,10.373,10.373,0,0,1,5.286,1.321,7,7,0,0,1,3.511,6.3c0,4.8-3.813,8.382-9.137,8.382a12.013,12.013,0,0,1-6.116-1.51l.83-2.53a10.988,10.988,0,0,0,5.248,1.36c3.134,0,5.814-2.039,5.814-5.324-.038-3.171-2.152-5.436-7.06-5.436a25.429,25.429,0,0,0-3.4.264l1.586-11.779h11.741Z" transform="translate(-905.335 -908.503)"/><path class="b" d="M1609.034,1468.171a12.015,12.015,0,0,0-2.491.151,9.974,9.974,0,0,0-8.533,8.722h.114a7.31,7.31,0,0,1,5.927-2.832c4.343,0,7.4,3.134,7.4,7.929,0,4.493-3.058,8.646-8.155,8.646-5.248,0-8.684-4.078-8.684-10.458a15.431,15.431,0,0,1,4.153-11.062,13.361,13.361,0,0,1,7.853-3.624,15.946,15.946,0,0,1,2.416-.188Zm-.944,14.158c0-3.511-2-5.625-5.059-5.625a5.466,5.466,0,0,0-4.757,3.02,2.827,2.827,0,0,0-.377,1.472c.075,4.04,1.925,7.022,5.4,7.022C1606.165,1488.219,1608.09,1485.84,1608.09,1482.329Z" transform="translate(-1004.567 -907.816)"/><path class="b" d="M1299.436,1322.471h-.075l-4.266,2.3-.642-2.53,5.361-2.869h2.832v24.54h-3.209Z" transform="translate(-810.845 -813.537)"/><path class="b" d="M1441.177,1343.159v-2.039l2.6-2.53c6.267-5.965,9.1-9.136,9.137-12.836,0-2.492-1.208-4.795-4.87-4.795a8.357,8.357,0,0,0-5.21,2.076l-1.057-2.341a10.769,10.769,0,0,1,6.947-2.492c5.286,0,7.513,3.625,7.513,7.136,0,4.531-3.285,8.193-8.457,13.176l-1.963,1.813v.075h11.024v2.756Z" transform="translate(-905.54 -812.781)"/><path class="b" d="M1596.37,1339.346a11.1,11.1,0,0,0,5.436,1.548c4.266,0,5.587-2.719,5.55-4.757-.037-3.436-3.134-4.908-6.343-4.908h-1.85v-2.493h1.85c2.416,0,5.475-1.245,5.475-4.153,0-1.963-1.246-3.7-4.3-3.7a9.015,9.015,0,0,0-4.908,1.623l-.868-2.416a11.665,11.665,0,0,1,6.418-1.888c4.833,0,7.022,2.87,7.022,5.853,0,2.53-1.51,4.681-4.531,5.776v.075a6.393,6.393,0,0,1,5.474,6.305c0,3.927-3.058,7.362-8.948,7.362a12.472,12.472,0,0,1-6.381-1.661Z" transform="translate(-1005.117 -812.781)"/><path class="b" d="M1308.331,1823.494a2.96,2.96,0,1,1-2.96-2.96A2.96,2.96,0,0,1,1308.331,1823.494Z" transform="translate(-815.982 -1136.985)"/><path class="b" d="M1753.592,1402.316h-15.578v-15.579h-4.006v15.579H1718.43v4.005h15.579V1421.9h4.006v-15.578h15.578Z" transform="translate(-1084.479 -857.013)"/><path class="b" d="M1607.09,1794.866l-8.248-8.248,8.248-8.248-2.121-2.121-8.248,8.248-8.248-8.248-2.121,2.121,8.248,8.248-8.248,8.248,2.121,2.121,8.248-8.248,8.248,8.248Z" transform="translate(-999.237 -1108.404)"/><rect class="b" width="26.088" height="3.995" transform="translate(637.525 622.99)"/><rect class="b" width="26.088" height="3.995" transform="translate(638.488 669.164)"/><rect class="b" width="26.088" height="3.995" transform="translate(638.488 679.222)"/><rect class="o" width="87.909" height="37.198" transform="translate(414.062 527.302)"/><rect class="aa" width="87.909" height="37.198" transform="translate(326.153 527.302)"/><rect class="ab" width="87.909" height="37.198" transform="translate(238.244 527.302)"/><path class="ac" d="M865.671,1416.207h-265.1v-39.386h265.1Zm-263.726-2.186H864.294v-35.013H601.945Z" transform="translate(-363.012 -850.613)"/><rect class="o" width="87.909" height="37.198" transform="translate(400.595 601.701)"/><rect class="aa" width="87.909" height="37.198" transform="translate(312.686 601.701)"/><rect class="ab" width="87.909" height="37.198" transform="translate(224.777 601.701)"/><path class="ac" d="M827.694,1626.019H562.59v-39.386h265.1Zm-263.727-2.186H826.316V1588.82H563.967Z" transform="translate(-338.501 -986.025)"/><rect class="o" width="87.909" height="37.198" transform="translate(414.062 638.901)"/><rect class="aa" width="87.909" height="37.198" transform="translate(326.153 638.901)"/><rect class="ab" width="87.909" height="37.198" transform="translate(238.244 638.901)"/><path class="ac" d="M865.671,1730.924h-265.1v-39.386h265.1Zm-263.726-2.187H864.294v-35.013H601.945Z" transform="translate(-363.012 -1053.731)"/><rect class="o" width="87.909" height="37.198" transform="translate(435.283 676.1)"/><rect class="aa" width="87.909" height="37.198" transform="translate(347.374 676.1)"/><rect class="ab" width="87.909" height="37.198" transform="translate(259.465 676.1)"/><path class="ac" d="M925.514,1835.83h-265.1v-39.386h265.1Zm-263.726-2.187H924.138V1798.63H661.788Z" transform="translate(-401.635 -1121.437)"/><rect class="o" width="87.909" height="37.198" transform="translate(428.549 564.501)"/><rect class="aa" width="87.909" height="37.198" transform="translate(340.64 564.501)"/><rect class="ab" width="87.909" height="37.198" transform="translate(252.731 564.501)"/><path class="ac" d="M906.526,1521.113h-265.1v-39.386h265.1ZM642.8,1518.927H905.148v-35.013H642.8Z" transform="translate(-389.379 -918.319)"/><path class="ad" d="M669.033,661.614l2.652,19.982L657.491,671.23l-43.442-22.193,33.6,3.076s17.118,4.158,18.044,5A41.624,41.624,0,0,1,669.033,661.614Z" transform="translate(-371.713 -380.902)"/><path class="ae" d="M1526.26,1042.287v3.415l7.718,2.016.215-7.532Z" transform="translate(-960.453 -633.349)"/><path class="ae" d="M1575.647,1043.442v4.071l7.388,2.242.6-6.681Z" transform="translate(-992.328 -635.213)"/><path class="h" d="M683.913,649.547l-69.864-.51,54.984,12.577Z" transform="translate(-371.713 -380.902)"/><path class="h" d="M646.574,681.716l18.306-14.7-50.832-17.975Z" transform="translate(-371.713 -380.902)"/><path class="ad" d="M1011.1,980.253l-.922-1.363a18.805,18.805,0,0,0,3.845-3.48l1.259,1.059A20.429,20.429,0,0,1,1011.1,980.253Z" transform="translate(-627.375 -591.543)"/><path class="ad" d="M916.8,802.769l-1.57-.493a46.177,46.177,0,0,0,1.872-10.242l1.64.126A47.824,47.824,0,0,1,916.8,802.769Zm1.887-21.362-1.637.166q-.068-.677-.158-1.352a42.756,42.756,0,0,0-.871-4.6c-.345-1.4-.769-2.811-1.258-4.193l1.551-.549c.507,1.432.946,2.9,1.3,4.348a44.458,44.458,0,0,1,.9,4.775C918.581,780.459,918.636,780.931,918.684,781.407Zm-8.439-19.375a60.912,60.912,0,0,0-6.236-8.4l1.234-1.087a62.527,62.527,0,0,1,6.406,8.631Zm-51.4-3.892a9.153,9.153,0,0,1-5.806-.753,8.7,8.7,0,0,1-3.3-3.708l1.478-.723a6.97,6.97,0,0,0,2.662,3.018,7.584,7.584,0,0,0,4.57.569.909.909,0,0,0,.166-.052c.069-.044.152-.1.234-.153l.914,1.368q-.141.094-.284.185A2.145,2.145,0,0,1,858.841,758.14Zm37.67-11.853A83.955,83.955,0,0,0,888.085,740l.9-1.377a85.649,85.649,0,0,1,8.591,6.413Zm-30.823,2.174-1.61-.338a15.2,15.2,0,0,0,.324-3.073,18.359,18.359,0,0,0-.551-4.433,22.2,22.2,0,0,0-.767-2.463l1.54-.579a23.714,23.714,0,0,1,.825,2.648,20.031,20.031,0,0,1,.6,4.831A16.841,16.841,0,0,1,865.688,748.461ZM851.224,743.4l-1.484-.71a16.551,16.551,0,0,1,7.686-7.493l.227-.108.7,1.489-.209.1A14.877,14.877,0,0,0,851.224,743.4Zm27.3-7.377a34.024,34.024,0,0,0-6.5-1.52c-1.315-.062-2.518-.076-3.677-.041l-.05-1.645c1.2-.037,2.447-.023,3.806.042a37.651,37.651,0,0,1,6.9,1.589Zm-20.77-6.66a35.148,35.148,0,0,0-7.8-6.787l.887-1.386a36.788,36.788,0,0,1,8.165,7.1Z" transform="translate(-523.826 -427.468)"/><path class="ad" d="M814.263,708.45a31.7,31.7,0,0,0-5.195-.979l.166-1.637a33.408,33.408,0,0,1,5.465,1.03Z" transform="translate(-497.578 -417.558)"/><path class="d" d="M1439.444,590.549l-1.415,8.879-2.991-11.838s4.192-2.034,4.377-1.294A33.024,33.024,0,0,1,1439.444,590.549Z" transform="translate(-901.578 -340.304)"/><path class="ae" d="M1378.006,652.48l-1.295,15.35,13.546-.647L1388.7,653.59Z" transform="translate(-863.934 -383.124)"/><path class="af" d="M1390.978,660.054l-.743-6.465-10.689-1.11-.448,5.316C1381.223,659.913,1385.045,662.109,1390.978,660.054Z" transform="translate(-865.475 -383.124)"/><path class="af" d="M1435.274,619.507c-.814,1.684-.382,3.578.965,4.23s3.1-.186,3.915-1.87.382-3.578-.965-4.23S1436.089,617.822,1435.274,619.507Z" transform="translate(-901.465 -360.493)"/><path class="ae" d="M1378.264,600.739a14.117,14.117,0,0,0,1.236-2.3,26.773,26.773,0,0,0,1.867-6.554c.071-.439.167-.873.272-1.306a14.474,14.474,0,1,0-28.514-4.315,3.127,3.127,0,0,0-2.8-.4c-1.762.657-2.526,2.976-1.7,5.179s2.916,3.457,4.679,2.8a2.771,2.771,0,0,0,.673-.368,13.572,13.572,0,0,0,12.678,13.27,12.986,12.986,0,0,0,9.025-3.1,6.559,6.559,0,0,0,.518-.427A12.573,12.573,0,0,0,1378.264,600.739Z" transform="translate(-845.593 -331.641)"/><path class="af" d="M1408.128,613.7c.028.829.034,1.638.077,2.432a5.394,5.394,0,0,0,.447,2.151l.062.087a1.059,1.059,0,0,0,.077.108,1.983,1.983,0,0,1,.218.312,1.636,1.636,0,0,1,.216.76,1.709,1.709,0,0,1-.631,1.34,2.792,2.792,0,0,1-2.491.486,3.447,3.447,0,0,0,2.036-.95,1.1,1.1,0,0,0,.3-.831.911.911,0,0,0-.141-.393,1.228,1.228,0,0,0-.134-.184l-.1-.137-.116-.161a3.228,3.228,0,0,1-.392-1.323,6.758,6.758,0,0,1,.006-1.276A8.656,8.656,0,0,1,1408.128,613.7Z" transform="translate(-882.904 -358.098)"/><path class="u" d="M1393.675,614.387a1.263,1.263,0,1,1-1.2-1.321A1.263,1.263,0,0,1,1393.675,614.387Z" transform="translate(-873.253 -357.685)"/><path class="u" d="M1424.144,617.823a1.263,1.263,0,1,1-1.2-1.321A1.264,1.264,0,0,1,1424.144,617.823Z" transform="translate(-892.918 -359.902)"/><path class="af" d="M1392.3,640.917a10.451,10.451,0,0,0,2.169,1.445,7.834,7.834,0,0,0,2.452.753,6.683,6.683,0,0,0,2.546-.188,9.381,9.381,0,0,0,2.368-1.076,7.955,7.955,0,0,1-1.079.766,7.313,7.313,0,0,1-1.214.554,6.241,6.241,0,0,1-1.313.286,6.631,6.631,0,0,1-1.348-.014,6.914,6.914,0,0,1-2.53-.857A7.568,7.568,0,0,1,1392.3,640.917Z" transform="translate(-873.992 -375.661)"/><path class="d" d="M1390.01,606.019a12.956,12.956,0,0,0-1.847-.443,6.387,6.387,0,0,0-1.755-.039,5.938,5.938,0,0,0-1.688.448c-.292.091-.546.264-.84.387-.284.142-.548.322-.866.461a5.286,5.286,0,0,1,.561-.843,4.305,4.305,0,0,1,.764-.688,4.077,4.077,0,0,1,1.958-.753,4.261,4.261,0,0,1,2.076.276A3.883,3.883,0,0,1,1390.01,606.019Z" transform="translate(-868.001 -352.17)"/><path class="d" d="M1418.439,608.83a3.884,3.884,0,0,1,1.839-.854,4.257,4.257,0,0,1,2.09.132,4.077,4.077,0,0,1,1.774,1.119,4.34,4.34,0,0,1,.616.823,5.321,5.321,0,0,1,.386.936c-.285-.2-.509-.427-.76-.621-.265-.178-.481-.4-.749-.543a5.932,5.932,0,0,0-1.569-.767,6.416,6.416,0,0,0-1.729-.3A12.992,12.992,0,0,0,1418.439,608.83Z" transform="translate(-890.865 -354.354)"/><path class="g" d="M1401.116,846.838s-2.824,19.162,15.69,22.5,41.55,2.342,41.55,2.342l3.206,44.017,9.666.493s24.888-61.158-9.561-70.718l-30.958.152-12.748-.911s-12.9-3.187-13.051-2.58S1401.42,847.141,1401.116,846.838Z" transform="translate(-879.585 -505.476)"/><path class="f" d="M1353.133,847.122s-2.824,19.162,15.69,22.5,41.55,2.342,41.55,2.342l3.206,44.017,9.665.493s24.888-61.158-9.56-70.718l-30.958.152L1369.978,845s-12.9-3.187-13.051-2.58S1353.437,847.426,1353.133,847.122Z" transform="translate(-848.617 -505.66)"/><path class="u" d="M1334.4,676.295s12.747,1.619,15.985,4.25,18.818,41.278,18.818,41.278L1356.249,737l-27.518.2s-20.639,11.129-33.589.607-6.273-47.146,1.214-55.037,20.841-7.689,20.841-7.689S1329.337,683.58,1334.4,676.295Z" transform="translate(-806.56 -397.71)"/><path class="b" d="M1347.353,732.714a53.482,53.482,0,0,1,.933,6.389c.11,1.072.157,2.149.219,3.225.032,1.078.057,2.156.042,3.236a42.592,42.592,0,0,1-.531,6.458,21.247,21.247,0,0,1-1.878,6.186,31.724,31.724,0,0,0,1.234-6.273c.235-2.116.316-4.25.343-6.382.044-2.134-.008-4.271-.076-6.41S1347.467,734.864,1347.353,732.714Z" transform="translate(-844.203 -434.907)"/><path class="b" d="M1457.124,728.72c.583,3.135,1.2,6.257,1.826,9.375s1.3,6.224,2.057,9.308,1.574,6.151,2.576,9.156a44.726,44.726,0,0,0,1.719,4.423,17.041,17.041,0,0,0,2.445,4.058,15.519,15.519,0,0,1-2.811-3.876,36.5,36.5,0,0,1-1.965-4.386c-.573-1.5-1.064-3.02-1.529-4.55-.449-1.535-.86-3.079-1.243-4.63-.366-1.555-.716-3.113-1.031-4.677s-.6-3.134-.854-4.71C1457.793,735.065,1457.388,731.9,1457.124,728.72Z" transform="translate(-915.833 -432.329)"/><path class="ae" d="M1437.984,821.465c-.081-.64-4.944-1.356-6.732-1.448-1.354-.07-10.333-.37-13.386-.508l.224.785-.046,3.468-.5,2.3c2.679.17,9.228.426,10.592.7a33.472,33.472,0,0,1,4.982,1.734s1.314-.3-.356-1.019a8.014,8.014,0,0,1-2.68-1.921c-.229-.256.019-.713.186-.669,4.547,1.192,5.015,1.389,5.015,1.389s5.344-.03.03-1.231c-3.185-.72-4.327-1.139-4.611-1.5-.121-.152.1-.67.289-.682,2.76-.171,7.713.808,6.356.166a34.978,34.978,0,0,0-5.946-1.313c-.083-.013-.217-.518.153-.549C1434.182,820.946,1438.059,822.06,1437.984,821.465Z" transform="translate(-890.287 -490.924)"/><path class="b" d="M1340.789,803.114c1.119.272,2.223.585,3.347.82,1.116.266,2.247.46,3.368.7q3.383.617,6.788,1.088c2.272.3,4.547.573,6.828.792s4.584.419,6.833.545l.3.017.067.262a18.678,18.678,0,0,1,.415,2.27,18.187,18.187,0,0,1,.134,2.292,14.749,14.749,0,0,1-.2,2.294,10.559,10.559,0,0,1-.666,2.213l-.026.062-.049.033-2.5,1.677c-.833.56-1.668,1.115-2.512,1.659q1.175-.942,2.369-1.857l2.382-1.839-.075.094a10.1,10.1,0,0,0,.524-2.127,14.651,14.651,0,0,0,.107-2.2,20.511,20.511,0,0,0-.2-2.2,17.888,17.888,0,0,0-.442-2.156l.369.279c-1.189-.031-2.314-.108-3.471-.192s-2.3-.176-3.443-.3c-2.292-.237-4.579-.522-6.855-.886s-4.539-.811-6.782-1.341c-1.117-.286-2.236-.561-3.335-.908C1342.958,803.887,1341.872,803.5,1340.789,803.114Z" transform="translate(-840.75 -480.343)"/><path class="h" d="M1487.765,752.4h-49.776l-14.114,34.449H1406.7a1.279,1.279,0,0,0-1.214,1.214,1.229,1.229,0,0,0,1.214,1.214h64.528Z" transform="translate(-882.502 -447.612)"/><path class="ag" d="M1559.346,802.077a2.394,2.394,0,1,1-1.794-3.124A2.559,2.559,0,0,1,1559.346,802.077Z" transform="translate(-978.765 -477.631)"/><path class="d" d="M1386.651,557.031s4.25.137-.21-3.457-16.433-7.807-24.108-3.755c0,0-1.535-3.263-3.753-2.484s1.442,3.024,1.442,3.024-2.833-.092-3.7,1.3c-.639,1.027,1.1,1.072,2.044,1.026-1.613.274-7.8,4.179-4.693,16.646,1.1-.243,7.388-9.357,7.388-9.357s14.374,7.985,12.952,1.636c0,0,14.891,9.293,12.779,1.616C1386.8,563.226,1392.554,563.648,1386.651,557.031Z" transform="translate(-848.513 -315.186)"/><path class="d" d="M1355.2,582.346a2.723,2.723,0,0,1,2.471.6c1.28,1.015,1.138,4.585,1.138,4.585s6.11,3.94,5.466-12.732c-.685-17.737-5.1,1.423-5.1,1.423Z" transform="translate(-850.054 -328.127)"/><path class="aa" d="M507.111,546.331l-37.2,50.452,13.439,6.423-16.289,40.648,40.125-46.621L491.418,591Z" transform="translate(-276.847 -314.615)"/><path class="ae" d="M848.6,1358.782l7.739-4.775,6.684,4.038-2.335,1.662-8.106,1.143s-3.164-.405-3.3-.5A10.735,10.735,0,0,1,848.6,1358.782Z" transform="translate(-523.089 -835.889)"/><path class="f" d="M844.11,1366.132l-1.962,1.262a1.075,1.075,0,0,0,.568,1.983l14.849.07a.948.948,0,0,0,.953-.944l.015-3.108C848.63,1368.5,845.218,1367.523,844.11,1366.132Z" transform="translate(-518.603 -843.239)"/><path class="ae" d="M940.458,1359.567l7.739-4.775,6.684,4.038-2.335,1.662-8.106,1.144s-3.164-.405-3.3-.5A10.775,10.775,0,0,1,940.458,1359.567Z" transform="translate(-582.377 -836.395)"/><path class="f" d="M935.973,1366.916l-1.961,1.262a1.075,1.075,0,0,0,.568,1.983l14.849.07a.948.948,0,0,0,.953-.944l.015-3.107C940.492,1369.282,937.081,1368.308,935.973,1366.916Z" transform="translate(-577.892 -843.745)"/><path class="aa" d="M38.107,779.622l28.049,39.67,8-8.321,25.935,21.894L75.576,791.977,67.149,802.06Z" transform="translate(0 -465.181)"/><path class="aa" d="M278.259,613.992l-4.491,35.867,8.571-.557,3.265,25.04,7.043-34.765-9.688,1.312Z" transform="translate(-152.096 -358.284)"/><path class="f" d="M1140.357,994.752a10.142,10.142,0,0,1,10.214,0c5.436,3.127,5.436,13.672,3.3,16.2s.109,5.939-4.174,9.234-11.1,4.5-15,.655-1.038-12.435-1.038-12.435l6.7-13.65" transform="translate(-706.416 -603.129)"/><path class="ae" d="M967.279,1085.3a.3.3,0,0,1-.526.06c-1.051-1.523-4.388-6.292-4.836-6.113-.533.213,2.345,4.548,2.025,4.974-.162.215-.932-.777-1.723-1.77-.773-.97-1.566-1.941-1.829-1.783-.533.32,2.06,4.157,1.883,4.37s-3.056-3.2-3.482-3.2,2.2,4.015,2.061,4.335c-.073.164-.823-.322-1.567-.808-.712-.465-1.42-.93-1.524-.826-.213.213-.391.32,4.37,6.964,0,0,2.072,2.091,2.214,2.944l2.512.787,2.558-2.522s.249-10.517-.106-10.766c-.339-.237-.645-.054-2.029,3.353" transform="translate(-593.489 -658.556)"/><path class="ah" d="M971.029,1262.446l-9.725,33.225-11.749-3.286,3.917-27.9,12.147-8.335Z" transform="translate(-588.248 -772.732)"/><path class="d" d="M1024.661,1081.617s-20.393,25.093-23.852,29.083l-20.659-20.394a27.693,27.693,0,0,0-6.3,4.788s8.335,19.241,15.517,24.3l14.364,9.664-2.749,6.562,5.143,3.99,2.7-6.472,7.4-16.4,7-21.812,1.33-10.817.089-2.483" transform="translate(-603.931 -660.088)"/><path class="b" d="M1083.477,1088.619s-8.6,14.009-10.374,19.418-.355,5.852-1.153,12.413-6.827,24.117-6.827,24.117l10.019,6.739s5.409-17.29,5.409-18,5.054-32.364,5.054-32.364l4.167-11.793Z" transform="translate(-662.836 -664.607)"/><path class="u" d="M945.8,1229.438s-17.2-15.428-30.5-18.531-49.073,50.855-49.073,50.855l8.552,6.158s30.945-22.255,36.8-32.186c0,0,25.14,33.152,33.563,33.95s17.924-.982,29.124-14.443c12.7-15.26-28.462-25.8-28.462-25.8" transform="translate(-534.465 -743.448)"/><path class="ae" d="M1122.586,1050.111l3.813,10.286s-2.76,6.284-12,3.956c0,0,.964-2.195-.6-6.584-1.6-4.485,8.789-7.659,8.789-7.659" transform="translate(-694.142 -639.754)"/><path class="ai" d="M1142.609,1060.126l0,0,.467,1.261,0-.012-.466-1.254" transform="translate(-712.842 -646.218)"/><path class="aj" d="M1115.309,1075.569h0a13.351,13.351,0,0,1,.429,2.412l0,0a13.437,13.437,0,0,0-.431-2.409" transform="translate(-695.225 -656.185)"/><path class="ak" d="M1116.521,1082.363l0,0c.012.159.021.312.026.457h0q-.007-.22-.027-.459" transform="translate(-696.006 -660.57)"/><path class="al" d="M1124.989,1060.14a12.953,12.953,0,0,1-9.679,5.471,13.44,13.44,0,0,1,.431,2.409q.019.24.027.459c5.834-.966,8.856-3.5,9.688-7.079l-.467-1.26" transform="translate(-695.226 -646.227)"/><path class="b" d="M984.209,1252.774a12.816,12.816,0,0,0-.243,2.568,17.5,17.5,0,0,0,.206,2.579,22.7,22.7,0,0,0,.557,2.528,18.54,18.54,0,0,0,.861,2.445l.2-.173a11.628,11.628,0,0,1-1.318-1.052c-.42-.38-.827-.775-1.216-1.189s-.756-.848-1.116-1.29-.7-.9-1.035-1.362c.294.49.606.97.94,1.434s.694.912,1.064,1.349.769.853,1.189,1.246a11.827,11.827,0,0,0,1.343,1.1l.385.263-.184-.437a24.385,24.385,0,0,1-.837-2.412,22.518,22.518,0,0,1-.581-2.491,18.744,18.744,0,0,1-.295-2.541A15.705,15.705,0,0,1,984.209,1252.774Z" transform="translate(-608.611 -770.553)"/><path class="af" d="M1069.58,1027.022c.8,1.664.378,3.534-.953,4.177s-3.062-.184-3.866-1.847-.377-3.534.953-4.177S1068.775,1025.359,1069.58,1027.022Z" transform="translate(-662.339 -623.52)"/><path class="ae" d="M1075.465,1008.489a13.93,13.93,0,0,1-1.22-2.267,26.46,26.46,0,0,1-1.844-6.472c-.07-.434-.165-.863-.268-1.29a14.293,14.293,0,1,1,28.158-4.261,3.089,3.089,0,0,1,2.763-.393c1.741.649,2.494,2.939,1.684,5.115s-2.88,3.414-4.62,2.765a2.721,2.721,0,0,1-.664-.364,13.4,13.4,0,0,1-12.52,13.1,12.819,12.819,0,0,1-8.912-3.065,6.134,6.134,0,0,1-.511-.422,12.4,12.4,0,0,1-2.045-2.45" transform="translate(-667.102 -595.028)"/><path class="af" d="M1101.273,1021.292c.032.809.057,1.609.036,2.4a9.428,9.428,0,0,1-.1,1.165,2.913,2.913,0,0,1-.329,1.037l-.07.1a1.364,1.364,0,0,1-.08.113,1.839,1.839,0,0,0-.2.287,1.387,1.387,0,0,0-.141.328,1.186,1.186,0,0,0-.062.357,1.587,1.587,0,0,0,.566,1.235,2.431,2.431,0,0,0,1.152.554,3.39,3.39,0,0,0,1.229.006,4.685,4.685,0,0,1-1.156-.257,2.392,2.392,0,0,1-.934-.6,1.2,1.2,0,0,1-.353-.909.872.872,0,0,1,.049-.233.9.9,0,0,1,.1-.221,1.368,1.368,0,0,1,.148-.2c.053-.068.139-.184.2-.275a3.264,3.264,0,0,0,.374-1.249,7.073,7.073,0,0,0,.017-1.24A10.142,10.142,0,0,0,1101.273,1021.292Z" transform="translate(-685.554 -621.155)"/><path class="u" d="M1116.369,1021.967a1.248,1.248,0,1,0,1.188-1.3A1.247,1.247,0,0,0,1116.369,1021.967Z" transform="translate(-695.909 -620.747)"/><path class="u" d="M1086.279,1025.361a1.248,1.248,0,1,0,1.188-1.3A1.247,1.247,0,0,0,1086.279,1025.361Z" transform="translate(-676.489 -622.938)"/><path class="am" d="M1104.7,1050.658a4.018,4.018,0,0,0-2.348.729,3.869,3.869,0,0,0-1.726-.455,2.339,2.339,0,0,0-1.518.523,3.445,3.445,0,0,0,3.292,2.407c.142,0,.29-.007.443-.022a3.082,3.082,0,0,0,2.954-3.041,3.978,3.978,0,0,0-1.1-.142" transform="translate(-684.768 -640.107)"/><path class="af" d="M1105.137,1048.167a8.936,8.936,0,0,1-1.03.783,8.845,8.845,0,0,1-1.111.643,7.725,7.725,0,0,1-2.421.744,6.593,6.593,0,0,1-2.513-.185,9.275,9.275,0,0,1-2.338-1.062,7.847,7.847,0,0,0,1.066.756,7.215,7.215,0,0,0,1.2.547,6.177,6.177,0,0,0,1.3.283,6.544,6.544,0,0,0,1.331-.014,6.828,6.828,0,0,0,2.5-.847A7.464,7.464,0,0,0,1105.137,1048.167Z" transform="translate(-682.584 -638.5)"/><path class="f" d="M1111.954,1013.7a12.955,12.955,0,0,1,1.824-.438,6.332,6.332,0,0,1,1.733-.038,5.844,5.844,0,0,1,1.667.442c.287.09.539.26.83.382.281.14.541.318.855.456a5.23,5.23,0,0,0-.554-.832,4.255,4.255,0,0,0-.754-.679,4.033,4.033,0,0,0-1.934-.744,4.2,4.2,0,0,0-2.05.273A3.842,3.842,0,0,0,1111.954,1013.7Z" transform="translate(-693.06 -615.301)"/><path class="f" d="M1084.4,1016.48a3.833,3.833,0,0,0-1.816-.843,4.2,4.2,0,0,0-2.064.13,4.027,4.027,0,0,0-1.752,1.1,4.279,4.279,0,0,0-.608.813,5.266,5.266,0,0,0-.382.924c.282-.2.5-.421.751-.613.262-.176.475-.392.74-.535a5.863,5.863,0,0,1,1.549-.757,6.324,6.324,0,0,1,1.707-.3A12.79,12.79,0,0,1,1084.4,1016.48Z" transform="translate(-671.004 -617.459)"/><path class="o" d="M913.606,1055a43.791,43.791,0,1,1-56.987-24.244A43.791,43.791,0,0,1,913.606,1055" transform="translate(-510.563 -625.209)"/><path class="p" d="M917.541,1064.675a39.384,39.384,0,1,1-51.252-21.8,39.384,39.384,0,0,1,51.252,21.8" transform="translate(-518.586 -633.231)"/><path class="o" d="M899.388,1118.186A36.872,36.872,0,1,1,919.8,1070.2a36.914,36.914,0,0,1-20.413,47.983m-27.063-67.14a35.517,35.517,0,1,0,46.22,19.664,35.558,35.558,0,0,0-46.22-19.664" transform="translate(-523.176 -637.821)"/><g transform="translate(332.437 420.17)"><path class="q" d="M907.674,1120.372l-7.715-22.019.1-.036L910.6,1112.1l2.594-.909-.316-17.361.1-.036,7.715,22.019,5.187-1.817-12.685-36.207-5.035,1.764.106,21.488-.1.036-13.379-16.837-4.984,1.746,12.686,36.207Zm-21.663,7.59-3.795-10.832.962-6.218,11.529,14,5.492-1.924-16-18.774,1.991-16.97L881,1089.065l-1.787,19.182-.1.036-5.791-16.527-5.187,1.817,12.686,36.207Z" transform="translate(-868.139 -1077.787)"/></g><path class="ae" d="M979.305,1165.977a.331.331,0,0,1-.375.446c-1.994-.421-8.277-1.707-8.5-1.224-.265.574,5.321,1.86,5.389,2.444s-5.35-.809-5.534-.149,4.8,1.763,4.818,2.068-4.867-.243-5.208.08,4.8,1.542,4.932,1.906-3.7.7-3.711,1.035-.07.552,8.772,2.258l3.51.523,3.1-1.12.135-3.956s-7.77-8.6-8.243-8.529C977.937,1161.825,977.83,1162.2,979.305,1165.977Z" transform="translate(-601.365 -711.811)"/><path class="e" d="M1055.934,1074.241s17.556,21.147,15.161,58.387-2.793,37.506-2.793,37.506-10.773-1.153-18.753-7.537a93.406,93.406,0,0,0-17.734-10.729l6.473-21.014s-8.423.266-14.541-2.305-18.886-9.4-18.886-9.4,1.064-6.3,2.394-8.246c0,0,16.226,4.965,24.383,5.054C1031.638,1115.959,1041.126,1086.7,1055.934,1074.241Z" transform="translate(-623.943 -655.328)"/><path class="d" d="M1103.326,1093.369a74.328,74.328,0,0,0-7.453,7.523,88.664,88.664,0,0,0-6.443,8.422l-.735,1.1c-.246.368-.492.735-.716,1.117l-1.378,2.268c-.235.375-.436.77-.65,1.157l-.634,1.166-.633,1.166c-.206.391-.385.8-.578,1.194l-1.137,2.4-1,2.457-.488,1.232-.415,1.259q-.419,1.257-.818,2.518.493-1.23.967-2.463l.477-1.231.549-1.2,1.083-2.406,1.2-2.351c.2-.39.39-.788.605-1.171l.648-1.148.648-1.148c.218-.382.423-.77.663-1.139l1.385-2.243c.224-.378.471-.741.717-1.106l.735-1.094q2.942-4.375,6.3-8.456l1.7-2.018c.584-.658,1.156-1.327,1.75-1.978C1100.852,1095.881,1102.071,1094.61,1103.326,1093.369Z" transform="translate(-672.598 -667.673)"/><path class="d" d="M1124.1,1135c-1.446,3.253-2.989,6.457-4.583,9.632-.8,1.584-1.621,3.161-2.472,4.719s-1.714,3.109-2.625,4.631-1.839,3.034-2.828,4.5c-.483.743-1,1.463-1.508,2.188-.528.711-1.049,1.428-1.6,2.119a40.25,40.25,0,0,1-3.537,3.955,18.639,18.639,0,0,1-4.253,3.164,17.56,17.56,0,0,0,4.451-2.948,36.072,36.072,0,0,0,3.7-3.877c1.153-1.367,2.2-2.814,3.217-4.284s1.961-2.984,2.872-4.516c1.82-3.07,3.472-6.233,5-9.451S1122.868,1138.343,1124.1,1135Z" transform="translate(-685.792 -694.543)"/><path class="f" d="M1066.97,966.695c2.054-4.468,6.05-6.99,9.5-8.392a18.3,18.3,0,0,1,13.293-.243c12.093,4.541,9.682,17.878,9.114,20.373a3.264,3.264,0,0,0-2.34.408,5.478,5.478,0,0,0-1,.687c-2.353-.717-3.065-4.623-4.283-6.5-1.652-2.554-8.061-.121-10.824-1.934s-3.233-3.7-3.233-3.7c-10.653,1.689-9.853,13.678-9.853,13.678-.461-.1-1.526-1.829-1.526-1.829S1063.193,974.912,1066.97,966.695Z" transform="translate(-662.711 -579.614)"/><path class="ae" d="M2141.116,1461.657l-22.753,14.3-1.7,134.4,4.532,3.116,4.452-.991,12.908-88.365,10.535-57.043Z" transform="translate(-1341.499 -905.366)"/><path class="ae" d="M2210.948,1591.575a149.2,149.2,0,0,0-27.892-45.97s3.328-8.977,6.745-38.588-11.01-48.214-11.01-48.214l-25.517,7.631s12.988,77.6,15.076,82.533c1.635,3.865,22.4,31.651,31.328,43.52l.012.21,4.026,5.144h0l3.813,4.874,4.508-2.04.8-5.628Z" transform="translate(-1365.127 -903.524)"/><path class="u" d="M2111.659,1481.188s-5.975,45.623-5.307,79.7c0,0,23.086,3.645,40.036,2.37l.729-19.5,3.646,18.408s8.384-.365,12.211-3.463c0,0-2.335-19.478-1.64-34.446s.069-33.806-4.86-46.3-32.32,1.191-32.32,1.191Z" transform="translate(-1334.81 -912.493)"/><path class="u" d="M2173.018,1172.6s5.245,4.016,6.822,9.694c1.345,4.849,7.343,4,11.094,10.479,4.165,7.2,10.088,17.96-3.5,25.218-8.439,4.509-21.875,7.978-24.922,4.935s-10.31-1.824-8.676-33.8c0,0,19.863-11.223,20.063-11.291S2173.018,1172.6,2173.018,1172.6Z" transform="translate(-1365.34 -718.811)"/><path class="g" d="M2071.956,1382.237l2.43-10.452-6.049-16.237a191.055,191.055,0,0,1-8.275,24.375l-18.227,2.215-3.848.728s24.945,14.224,31.72,3.754l1.164.284.647-2.782a9.01,9.01,0,0,0,.859-1.884Z" transform="translate(-1290.721 -836.883)"/><path class="ae" d="M2175.878,1265.138l-.488,7.681L2164.922,1275h-1.85l.386-9.2,11.1-3.921Z" transform="translate(-1371.451 -776.425)"/><path class="ae" d="M2152.755,1295.552c-.474,5.16,1.661,6.122,1.661,6.122l15.81-11.733c-9.813.962-16.16,2.016-16.16,2.016S2153.252,1295.693,2152.755,1295.552Z" transform="translate(-1364.748 -794.54)"/><path class="u" d="M2166.653,1184.1s3.227-13.244-4.462-18.2-15.839-4.408-21.389-1.436-8.874,13.334-6.386,19.254l18.424-5.653Z" transform="translate(-1352.416 -712.094)"/><path class="af" d="M2176.442,1265.424s-.222,2.23-.416,5.007c-3.982,4.361-11.445,2.865-12.43,2.442.06-1.4,0-4.224,0-4.224Z" transform="translate(-1371.789 -778.717)"/><path class="af" d="M2132.826,1225.089c.656,1.782.031,3.652-1.394,4.177s-3.113-.495-3.769-2.277-.032-3.652,1.394-4.177S2132.17,1223.307,2132.826,1225.089Z" transform="translate(-1348.43 -751.127)"/><path class="ae" d="M2138.488,1208.8a14.3,14.3,0,0,1-1.021-2.441,27.192,27.192,0,0,1-1.237-6.805c-.028-.451-.082-.9-.145-1.346a14.69,14.69,0,1,1,29.228-1.535,3.175,3.175,0,0,1,2.866-.124c1.715.838,2.257,3.256,1.209,5.4s-3.287,3.2-5,2.365a2.807,2.807,0,0,1-.643-.438,13.774,13.774,0,0,1-14.119,12.148,13.18,13.18,0,0,1-8.809-4.029,6.648,6.648,0,0,1-.48-.483A12.721,12.721,0,0,1,2138.488,1208.8Z" transform="translate(-1353.941 -724.539)"/><path class="u" d="M2180.372,1227.629a1.38,1.38,0,1,0,1.448-1.308A1.38,1.38,0,0,0,2180.372,1227.629Z" transform="translate(-1382.615 -753.479)"/><path class="u" d="M2145.821,1227.629a1.38,1.38,0,1,0,1.448-1.308A1.38,1.38,0,0,0,2145.821,1227.629Z" transform="translate(-1360.316 -753.479)"/><path class="u" d="M2177.1,1220.954a8.571,8.571,0,0,1,1.943-.744,6.17,6.17,0,0,1,2.011-.154,5.188,5.188,0,0,1,.988.187c.164.041.321.1.481.157.081.027.156.065.236.1s.158.063.234.1a10.325,10.325,0,0,1,1.765,1.108,5.536,5.536,0,0,0-1.583-1.448,4.714,4.714,0,0,0-.993-.464,4.649,4.649,0,0,0-1.081-.23,5.028,5.028,0,0,0-2.168.278,5.525,5.525,0,0,0-.981.461A4.414,4.414,0,0,0,2177.1,1220.954Z" transform="translate(-1380.506 -749.106)"/><path class="u" d="M2147.482,1220.954a4.419,4.419,0,0,0-.852-.651,5.532,5.532,0,0,0-.981-.461,5.025,5.025,0,0,0-2.168-.278,4.645,4.645,0,0,0-1.08.23,4.716,4.716,0,0,0-.994.464,5.54,5.54,0,0,0-1.583,1.448,10.317,10.317,0,0,1,1.765-1.108,2.519,2.519,0,0,1,.234-.1c.079-.031.155-.069.235-.1.16-.055.318-.116.481-.157a5.209,5.209,0,0,1,.989-.187,6.17,6.17,0,0,1,2.011.154A8.571,8.571,0,0,1,2147.482,1220.954Z" transform="translate(-1356.447 -749.106)"/><path class="b" d="M2242.348,1344.972a10.909,10.909,0,0,1-.937-1.136,12.348,12.348,0,0,1-.8-1.251,11.373,11.373,0,0,1-.653-1.337,13.9,13.9,0,0,1-.5-1.415,8.074,8.074,0,0,0,.317,1.48c.07.244.164.479.253.717s.2.469.315.694a10.041,10.041,0,0,0,.78,1.311,9.1,9.1,0,0,0,.766.96,5.424,5.424,0,0,1-.782.1,5.508,5.508,0,0,1-1.089-.05c-.182-.021-.359-.065-.539-.1-.175-.052-.354-.095-.526-.164a5.942,5.942,0,0,1-1-.481,4.588,4.588,0,0,0,2.023.994,5.04,5.04,0,0,0,1.143.115,4.726,4.726,0,0,0,1.153-.145l.276-.073Z" transform="translate(-1419.783 -826.741)"/><path class="af" d="M2162.348,1228.22a16.583,16.583,0,0,0-1.02,1.955,15.685,15.685,0,0,0-.769,2.077,5.887,5.887,0,0,0-.207,1.121,2.068,2.068,0,0,0,.01.309,1.469,1.469,0,0,0,.033.166.746.746,0,0,0,.081.179l.068.088.058.05c.038.032.075.067.115.1.081.055.16.114.242.161a5.291,5.291,0,0,0,1.024.467,7.121,7.121,0,0,0,1.071.281,11.991,11.991,0,0,1-1.9-1.039c-.072-.05-.135-.108-.2-.162l-.09-.085-.044-.043-.012-.023a.839.839,0,0,1-.032-.415,5.885,5.885,0,0,1,.215-1.029c.189-.692.43-1.378.661-2.068S2162.13,1228.923,2162.348,1228.22Z" transform="translate(-1369.694 -754.706)"/><path class="f" d="M2164.493,1334.494v0c1.881-10.464,2.69-21.695,2.69-21.695.107-2.589-2.962-6.163-3.1-8.19a10.224,10.224,0,0,1-3.242-3.877l-4.568-9.483-3.038-1.49a14.463,14.463,0,0,0-3.537-.009l-7.834,5.9a5.073,5.073,0,0,1-8.119-3.871l-.007,0c-6.871,5.512-11.5,8-12.451,16.847-.666,6.177,2.693,11.409,3.065,17.292l-3.077,37.144s25.928.292,44.814-3.229A157.435,157.435,0,0,1,2164.493,1334.494Z" transform="translate(-1344.428 -794.356)"/><path class="u" d="M2032.134,1422.473l-27.056,1.631a4.57,4.57,0,0,1-4.232-2.447l-14.233-32.935c-.628-1.455.248-2.717,1.956-2.82l27.056-1.631a4.568,4.568,0,0,1,4.232,2.447l14.233,32.935C2034.718,1421.107,2033.843,1422.37,2032.134,1422.473Z" transform="translate(-1257.432 -855.416)"/><path class="an" d="M2025.49,1385.091l-9.211.555a1.973,1.973,0,0,1-1.829-1.057l-.255-.59c-.271-.628.107-1.174.845-1.219l9.211-.556a1.974,1.974,0,0,1,1.829,1.058l.255.59C2026.606,1384.5,2026.228,1385.047,2025.49,1385.091Z" transform="translate(-1275.309 -854.098)"/><path class="ae" d="M2006.232,1445.974l-.116.051a1.459,1.459,0,0,1-1.853-.607l-4.24-7.363a1.067,1.067,0,0,1,.028-1.144c.718-1.072,2.264-3.275,2.792-3.194.7.106-1.429,3.768-1.139,3.842s3.3-2.365,3.553-1.967c.228.356-2.419,3.193-2.3,3.413s3.179-1.555,3.51-1.237c.3.287-2.583,2.58-2.543,2.741Z" transform="translate(-1266.121 -887.332)"/><path class="ae" d="M2010.72,1451.911s3.061-.93,3.331-.585-3.346,2.3-3.331,2.206S2010.72,1451.911,2010.72,1451.911Z" transform="translate(-1273.123 -898.649)"/><path class="u" d="M2178.574,1190.607l-.346-.041-.232-2.874-1.285-2.657s-5.033-7.145-5.21-7.323-4.016-2.48-4.252-2.6-5.61.768-5.61.768-9.453-2.034-7.854,3.248,8.5,8.031,8.858,7.795c-1.122-1.181-1.24-4.547-1.24-4.547,5.314,6.142,15.308,10.18,15.308,10.18a3.062,3.062,0,0,1,2.866-.124Z" transform="translate(-1365.34 -720.424)"/><path class="b" d="M2157.346,1253.71a3.908,3.908,0,0,0,7.537-.13Z" transform="translate(-1367.755 -771.074)"/><path class="ae" d="M2134.8,1315.192s-3.843-21.122-15.641-25.523a4.9,4.9,0,0,0-6.62,4.566c-.026,4.858,14.92,40.847,13.386,42.693-2.092,2.515-40.441,11.574-41.723,11.877l-4.567-.438c-3.762-.264-7.753-.773-7.972-.494-.308.392-.109.773,3.9,2.66a.363.363,0,0,1,.037.636c-1.9,1.164-7.865,4.866-7.68,5.417.22.655,5.629-2.523,6.121-2.111s-4.863,3.379-4.514,4.042,5.139-2.207,5.384-1.979-4.053,3.467-4.082,3.979,4.978-2.387,5.353-2.195-2.417,3.341-2.175,3.612-.691.675,7.623-4.617c0,0,2.048-1.38,2.8-1.958,0,0,47.627-6.722,50.587-10.49C2140.507,1337.878,2134.8,1315.192,2134.8,1315.192Z" transform="translate(-1310.036 -794.162)"/><path class="g" d="M2164.3,1315.192s-3.843-21.122-15.642-25.523a4.9,4.9,0,0,0-6.62,4.566c-.026,4.858,14.92,40.847,13.386,42.693-2.092,2.515-40.441,11.574-41.723,11.877l-.086-.008a56.254,56.254,0,0,0,1.706,6.363c7.865-1.142,46.531-6.906,49.19-10.29C2170,1337.878,2164.3,1315.192,2164.3,1315.192Z" transform="translate(-1339.531 -794.162)"/><path class="b" d="M1725.514,209.266a18.083,18.083,0,0,0-22.169-13.429,26.619,26.619,0,0,0-32.006-14.139,32.789,32.789,0,0,0-58.9,5.729,22.493,22.493,0,0,0-33.428,19.656c0,.737.038,1.464.107,2.183Z" transform="translate(-994.501 -69.047)"/><path class="b" d="M1226.4,451.265a9.564,9.564,0,0,1,11.725-7.1,14.079,14.079,0,0,1,16.928-7.477,17.342,17.342,0,0,1,31.15,3.03,11.9,11.9,0,0,1,17.68,10.4c0,.39-.02.774-.057,1.154Z" transform="translate(-766.925 -238.437)"/><path class="b" d="M1909.479,426.033a9.563,9.563,0,0,1,11.725-7.1,14.078,14.078,0,0,1,16.928-7.478,17.342,17.342,0,0,1,31.15,3.03,11.9,11.9,0,0,1,17.68,10.4c0,.389-.02.774-.056,1.154Z" transform="translate(-1207.782 -222.151)"/><path class="b" d="M2216.625,752.468a11.587,11.587,0,0,1,14.206-8.6,17.057,17.057,0,0,1,20.509-9.06,21.011,21.011,0,0,1,37.74,3.671,14.413,14.413,0,0,1,21.421,12.6c0,.472-.024.938-.069,1.4Z" transform="translate(-1406.014 -429.696)"/><path class="ae" d="M2092.609,1879.314l9.407-5.8,8.125,4.908-2.839,2.02-9.852,1.39s-3.845-.492-4.015-.606A13.125,13.125,0,0,1,2092.609,1879.314Z" transform="translate(-1325.974 -1171.176)"/><path class="d" d="M2087.157,1888.247l-2.384,1.533a1.306,1.306,0,0,0,.69,2.411l18.05.085a1.153,1.153,0,0,0,1.158-1.147l.018-3.778C2092.651,1891.122,2088.5,1889.938,2087.157,1888.247Z" transform="translate(-1320.522 -1180.109)"/><path class="ae" d="M2298.846,1858.757l-.255-11.554,8.031-4.184.377,3.463-3.6,9.277s-2.307,3.116-2.489,3.208A13.081,13.081,0,0,1,2298.846,1858.757Z" transform="translate(-1458.915 -1151.496)"/><path class="d" d="M2299.31,1858.757l.175,2.829a1.306,1.306,0,0,0,2.441.574l8.883-15.712a1.152,1.152,0,0,0-.436-1.57l-3.289-1.859C2304.5,1855.365,2301.444,1858.406,2299.31,1858.757Z" transform="translate(-1459.379 -1151.496)"/><path class="b" d="M1580.038,1077.18l-16.125-6.231a.78.78,0,0,1-.446-1.01l.12-.312a.781.781,0,0,1,1.01-.447l16.125,6.231a.781.781,0,0,1,.447,1.01l-.121.312a.781.781,0,0,1-1.01.447" transform="translate(-984.432 -652.028)"/><path class="u" d="M1568,1052.959l-2.484,4.7c-.306.579-.18,1.261.266,1.433l15.493,5.987a1.211,1.211,0,0,0,1.291-.333,2.307,2.307,0,0,0,.414-2.361c-.629-2.5-5-4.737-6.584-7.272l-7.217-2.789a1.024,1.024,0,0,0-1.179.638" transform="translate(-985.678 -641.152)"/><path class="b" d="M1590.211,1064.209h0a.356.356,0,0,1,.067-.435,3.208,3.208,0,0,1,3.955-.746.3.3,0,0,1,.044.386l0,0c-.076.141-.214.2-.315.139a2.768,2.768,0,0,0-3.452.639A.188.188,0,0,1,1590.211,1064.209Z" transform="translate(-1001.696 -647.817)"/><path class="b" d="M1594.058,1067.749h0a.357.357,0,0,1,.067-.435,3.208,3.208,0,0,1,3.954-.745.3.3,0,0,1,.044.386l0,0c-.076.141-.214.2-.315.139a2.766,2.766,0,0,0-3.452.639A.188.188,0,0,1,1594.058,1067.749Z" transform="translate(-1004.179 -650.102)"/><path class="b" d="M1597.635,1071.047h0a.356.356,0,0,1,.067-.435,3.209,3.209,0,0,1,3.955-.746.3.3,0,0,1,.044.387l0,0c-.076.141-.214.2-.315.139a2.767,2.767,0,0,0-3.451.639A.188.188,0,0,1,1597.635,1071.047Z" transform="translate(-1006.487 -652.23)"/><path class="ao" d="M1567.111,1058.925l-1.6,3.02a1.414,1.414,0,0,0-.168.662.782.782,0,0,0,.434.771h0l4.135,1.6c.316-4.447-1.619-5.7-2.8-6.052" transform="translate(-985.678 -645.443)"/><path class="b" d="M1532.913,1079.329l-16.52-5.092a.78.78,0,0,1-.516-.976l.1-.32a.782.782,0,0,1,.977-.516l16.519,5.091a.782.782,0,0,1,.517.977l-.1.32a.781.781,0,0,1-.976.516" transform="translate(-953.729 -654.133)"/><path class="u" d="M1519.838,1055.666l-2.151,4.857c-.265.6-.091,1.271.365,1.412l15.873,4.892a1.212,1.212,0,0,0,1.265-.422,2.308,2.308,0,0,0,.249-2.384c-.8-2.447-5.32-4.376-7.076-6.795l-7.394-2.279a1.025,1.025,0,0,0-1.132.719" transform="translate(-954.839 -642.857)"/><path class="b" d="M1542.2,1065.455h0a.357.357,0,0,1,.036-.439,3.208,3.208,0,0,1,3.893-1.02.3.3,0,0,1,.071.382l0,.005c-.066.146-.2.213-.3.161a2.766,2.766,0,0,0-3.4.877A.188.188,0,0,1,1542.2,1065.455Z" transform="translate(-970.705 -648.504)"/><path class="b" d="M1546.288,1068.718h0a.357.357,0,0,1,.037-.439,3.208,3.208,0,0,1,3.893-1.02.3.3,0,0,1,.071.382l0,0c-.066.146-.2.214-.3.161a2.768,2.768,0,0,0-3.4.878A.188.188,0,0,1,1546.288,1068.718Z" transform="translate(-973.341 -650.61)"/><path class="b" d="M1550.086,1071.758h0a.356.356,0,0,1,.036-.439,3.208,3.208,0,0,1,3.892-1.02.3.3,0,0,1,.072.382l0,0c-.066.146-.2.214-.305.161a2.767,2.767,0,0,0-3.4.878A.188.188,0,0,1,1550.086,1071.758Z" transform="translate(-975.792 -652.572)"/><path class="ap" d="M1519.07,1061.914l-1.383,3.124a1.444,1.444,0,0,0-.125.578,1.444,1.444,0,0,1,.125-.578l1.383-3.124h0" transform="translate(-954.839 -647.372)"/><path class="ao" d="M1519.07,1061.914l-1.383,3.124a1.444,1.444,0,0,0-.125.578.816.816,0,0,0,.49.833l4.237,1.306c0-4.458-2.012-5.572-3.219-5.841" transform="translate(-954.839 -647.372)"/></g></svg>