<svg xmlns="http://www.w3.org/2000/svg" width="215.751" height="50.074" viewBox="0 0 215.751 50.074"><defs><style>.a{fill:#fff200;}</style></defs><path class="a" d="M22,0A22,22,0,1,1,0,22,22,22,0,0,1,22,0Z" transform="translate(2.966 3.077)"/><g transform="translate(61.361 9.812)"><rect width="6.865" height="0.055" transform="translate(104.821 6.788)"/><path d="M493.766,269.872a18.164,18.164,0,0,0-5.074.744.888.888,0,0,0-.716.882,3.831,3.831,0,0,0,.2,1.042.726.726,0,0,0,.73.585,6.705,6.705,0,0,0,1.088-.2l.2-.05a16.246,16.246,0,0,1,3.21-.386c2.5,0,2.774.7,2.923,1.074a6.022,6.022,0,0,1,.22,1.981v1.127c-.957-.1-2.392-.11-3.022-.11a10.827,10.827,0,0,0-4.833.893,3.987,3.987,0,0,0-1.928,3.862,5.264,5.264,0,0,0,1.081,3.586c.921,1.052,2.4,1.566,4.525,1.566a14.321,14.321,0,0,0,5.708-1.006,2.178,2.178,0,0,0,.939-.808,2.61,2.61,0,0,0,.33-1.453v-7.962c0-1.97-.174-3.284-1.067-4.177C497.465,270.219,496.158,269.872,493.766,269.872Zm2.778,12.383a2.436,2.436,0,0,1-.124.9.758.758,0,0,1-.432.351A9.476,9.476,0,0,1,492.7,284c-2.643,0-3.175-1.042-3.175-2.718,0-1.141.361-1.531.677-1.74a6.959,6.959,0,0,1,3.529-.584c.971,0,2.094.046,2.81.1Z" transform="translate(-447.109 -263.455)"/><path d="M499.325,270.02l-.021,0a10.275,10.275,0,0,0-1.545-.128,10.515,10.515,0,0,0-5.531,1.57,2.2,2.2,0,0,0-.776,1.974V285.16a.826.826,0,0,0,.9.928h1a.826.826,0,0,0,.9-.928V274.282a1.71,1.71,0,0,1,.089-.691l.028-.046a.813.813,0,0,1,.372-.344l.025-.014a6.465,6.465,0,0,1,2.994-.62c.177,0,.478.018.747.035.227.011.425.025.528.025a.821.821,0,0,0,.829-.638l0-.021a8.59,8.59,0,0,0,.1-1.18A.748.748,0,0,0,499.325,270.02Z" transform="translate(-435.179 -263.412)"/><path d="M483.184,277.247l-2.122-.666c-2.236-.677-2.42-1.378-2.42-2.1,0-.992.23-2.048,3.022-2.048a13.649,13.649,0,0,1,3.2.383l.025.007.188.035a2.217,2.217,0,0,0,.411.06.76.76,0,0,0,.733-.567,4.426,4.426,0,0,0,.287-1.12.892.892,0,0,0-.787-.918,17.109,17.109,0,0,0-4.032-.436c-3.88,0-5.85,1.6-5.85,4.755,0,2.19,1.212,3.653,3.6,4.348l2.4.73c2.356.726,2.477,1.233,2.477,2,0,1.113-.39,2.143-3.207,2.143a11.579,11.579,0,0,1-3.7-.5l-.124-.042a2.109,2.109,0,0,0-.617-.152.855.855,0,0,0-.811.624,3.125,3.125,0,0,0-.3,1.063.878.878,0,0,0,.627.843,13.8,13.8,0,0,0,4.858.751c4.985,0,6.034-2.6,6.034-4.787C487.089,278.987,485.594,277.991,483.184,277.247Z" transform="translate(-475.57 -263.432)"/><path d="M497.155,269.889c-1.24,0-4.2.142-5.942,1.378-.716-.939-1.928-1.378-3.78-1.378a17.33,17.33,0,0,0-6.665,1.336,1.993,1.993,0,0,0-1.1,2.023V285.16a.824.824,0,0,0,.9.928h1a.824.824,0,0,0,.9-.928V274.343c0-.588.089-.74.113-.772l.028-.043a1.283,1.283,0,0,1,.471-.358,8.761,8.761,0,0,1,3.809-.666c1.747,0,2.016.361,2.254.957a6.315,6.315,0,0,1,.191,1.853v9.846a.825.825,0,0,0,.9.928h1.035a.825.825,0,0,0,.9-.928v-9.783c0-.135-.011-.425-.018-.694-.007-.227-.014-.439-.014-.521a1.16,1.16,0,0,1,.1-.556,1.174,1.174,0,0,1,.429-.333,9.266,9.266,0,0,1,3.83-.769c1.807,0,2.076.376,2.282.946a7.133,7.133,0,0,1,.191,1.988v9.722a.826.826,0,0,0,.9.928h1.031c.574,0,.868-.315.868-.928V275.041a9.305,9.305,0,0,0-.3-3.093C500.9,270.488,499.652,269.889,497.155,269.889Z" transform="translate(-465.146 -263.412)"/><path d="M511.522,268.157a1.651,1.651,0,0,0-1.75,1.871,1.749,1.749,0,1,0,3.5-.032C513.268,268.759,512.694,268.157,511.522,268.157Z" transform="translate(-388.591 -267.817)"/><path d="M503.118,286.422c-1.874-.092-2.756-.379-3.157-1.035a5.122,5.122,0,0,1-.439-2.6v-7.246H502.6a.86.86,0,0,0,.957-.9v-.79a.861.861,0,0,0-.957-.9h-3.083v-3.143c0-.861-.524-.989-.836-.989h-1.034c-.177,0-.765.071-.836.964-.06,1.711-.081,2.707-.089,3.168H495.1a.864.864,0,0,0-.9.928v.79a.806.806,0,0,0,.836.868h1.655v7.125c0,2.473.283,3.745,1.042,4.695,1.141,1.346,2.76,1.609,5.173,1.609a.826.826,0,0,0,.957-.748c.028-.266.06-.677.06-.939A.78.78,0,0,0,503.118,286.422Z" transform="translate(-428.181 -266.116)"/><path d="M522.519,283.364a2.515,2.515,0,0,0-.578.1l-.276.064-.018,0a12.567,12.567,0,0,1-3.263.354c-3.341,0-3.993-2.112-3.993-5.758,0-3.568.712-5.637,4.358-5.637a12.245,12.245,0,0,1,2.505.234,3.709,3.709,0,0,0,.9.163.764.764,0,0,0,.758-.585,4.923,4.923,0,0,0,.227-1.134.861.861,0,0,0-.762-.889,15.323,15.323,0,0,0-3.536-.4c-5.1,0-7.277,2.558-7.277,8.557,0,5.556,2.055,8.036,6.668,8.036a13.815,13.815,0,0,0,4.51-.655.865.865,0,0,0,.673-.911,4.171,4.171,0,0,0-.234-1.024A.662.662,0,0,0,522.519,283.364Z" transform="translate(-384.031 -263.455)"/><path d="M528.279,278.861c.309-.259.333-.645.333-1.162,0-4.284-.453-7.827-6-7.827-4.9,0-7.189,2.65-7.189,8.344,0,5.857,2.1,8.249,7.249,8.249a13.461,13.461,0,0,0,4.889-.783.913.913,0,0,0,.688-.843,3.778,3.778,0,0,0-.266-1.056l-.011-.028a.77.77,0,0,0-.712-.482,3.161,3.161,0,0,0-.882.167,12.071,12.071,0,0,1-3.462.443c-2.888,0-4.489-.772-4.6-4.769h9.155A1.236,1.236,0,0,0,528.279,278.861Zm-2.441-2.182h-7.512c.17-3.015,1.385-4.252,4.131-4.252,2.834,0,3.387,1.4,3.387,3.813C525.845,276.413,525.845,276.551,525.838,276.678Z" transform="translate(-374.222 -263.455)"/><path d="M506.259,269.872c-2.349,0-3.961.51-5.077,1.6-1.336,1.307-1.988,3.494-1.988,6.679,0,3.253.525,5.354,1.651,6.615,1.045,1.173,2.65,1.7,5.2,1.7,5.216,0,7.065-2.2,7.065-8.4C513.112,271.1,510.9,269.872,506.259,269.872Zm-.152,14.01c-2.778,0-4.085-.574-4.085-5.818,0-4.688,1.467-5.577,4.177-5.577,2.881,0,4.057.517,4.057,5.7C510.256,283.318,508.927,283.882,506.107,283.882Z" transform="translate(-415.49 -263.455)"/><path d="M527.594,270.03h-8.961v-.053h-2.8v.053h-6.867v-.053h-2.828v.053h-1.594a.838.838,0,0,0-.9.928v.79a.782.782,0,0,0,.864.868h1.626V284.9a.839.839,0,0,0,.9.96h1.035a.855.855,0,0,0,.9-.928v-12.32h6.867V284.9c0,.638.29.96.864.96h1.063a.843.843,0,0,0,.868-.928v-12.32H525.7v12.32a.823.823,0,0,0,.9.928h1a.826.826,0,0,0,.9-.928V271.051A.9.9,0,0,0,527.594,270.03Z" transform="translate(-404.15 -263.188)"/><path d="M507.183,274.3a4.7,4.7,0,0,1,.415-2.427c.521-.84.911-1.137,3.242-1.265a.814.814,0,0,0,.878-.9,8.9,8.9,0,0,0-.032-.914c-.06-.74-.751-.74-1.049-.74-2.7.032-3.908.581-5.013,1.772-.886.925-1.269,2.253-1.269,4.443v.574h2.828Z" transform="translate(-402.362 -268.061)"/><path d="M509.92,274.85V274.3a4.755,4.755,0,0,1,.411-2.427c.521-.84.914-1.137,3.242-1.265a.817.817,0,0,0,.882-.9,8.059,8.059,0,0,0-.035-.914c-.06-.74-.751-.74-1.045-.74-2.7.032-3.912.581-5.013,1.772-.889.925-1.269,2.253-1.269,4.443v.574h2.828Z" transform="translate(-395.404 -268.061)"/></g><path d="M471.331,308.237a21.274,21.274,0,0,0,31.954-13.967,1.484,1.484,0,0,0-.861-1.64l-18.564-8.351a.441.441,0,0,0-.412.071,5.018,5.018,0,0,1-8.269-4.668,5.019,5.019,0,0,1,9.954.938.379.379,0,0,0,.216.341l17.049,7.662a.855.855,0,0,0,1.185-.888,21.294,21.294,0,0,0-39.35-8.769,21.174,21.174,0,0,0-2.7,6.882,1.485,1.485,0,0,0,.867,1.634l18.564,8.347a.363.363,0,0,0,.405-.071,5.025,5.025,0,1,1-1.684,3.737.386.386,0,0,0-.216-.348L462.434,291.5a.846.846,0,0,0-1.185.891,21.107,21.107,0,0,0,10.082,15.847Zm35.4-24.066a24.576,24.576,0,0,1,.685,6.714,22,22,0,0,1-.419,3.811,25.021,25.021,0,0,1-48.905,1.266,24.511,24.511,0,0,1-.689-6.73,23.936,23.936,0,0,1,.415-3.811,25.023,25.023,0,0,1,48.912-1.249ZM485.17,301.432a1.994,1.994,0,1,0-2.407-1.468A1.985,1.985,0,0,0,485.17,301.432Zm-4.577-18.888a2,2,0,1,0-2.407-1.468A1.993,1.993,0,0,0,480.594,282.544Z" transform="translate(-457.391 -265.019)"/></svg>