<svg xmlns="http://www.w3.org/2000/svg" width="253.594" height="30.212" viewBox="0 0 253.594 30.212"><defs><style>.a{fill:#fff;}.b{fill:#ffe600;}.c{fill:#da1017;}.d{fill:#1d1d1b;}</style></defs><g transform="translate(-386.465 -264.477)"><g transform="translate(522.028 265.513)"><g transform="translate(34.746 5.814)"><rect class="a" width="3.703" height="0.03" transform="translate(56.545 3.662)"/><path class="a" d="M490.54,269.872a9.8,9.8,0,0,0-2.737.4.479.479,0,0,0-.386.476,2.068,2.068,0,0,0,.107.562.392.392,0,0,0,.394.315,3.614,3.614,0,0,0,.587-.109l.107-.027a8.765,8.765,0,0,1,1.732-.208c1.349,0,1.5.377,1.577.579a3.248,3.248,0,0,1,.119,1.068v.608c-.516-.054-1.29-.059-1.63-.059a5.839,5.839,0,0,0-2.607.482,2.15,2.15,0,0,0-1.04,2.083,2.84,2.84,0,0,0,.583,1.934,3.07,3.07,0,0,0,2.441.845,7.725,7.725,0,0,0,3.079-.543,1.177,1.177,0,0,0,.507-.436,1.409,1.409,0,0,0,.178-.784v-4.295a3.012,3.012,0,0,0-.575-2.253A3.211,3.211,0,0,0,490.54,269.872Zm1.5,6.68a1.315,1.315,0,0,1-.067.487.409.409,0,0,1-.233.189,5.111,5.111,0,0,1-1.772.266c-1.426,0-1.713-.562-1.713-1.466,0-.615.2-.826.365-.938a3.754,3.754,0,0,1,1.9-.315c.524,0,1.13.025,1.516.052Z" transform="translate(-465.371 -266.411)"/><path class="a" d="M495.7,269.96l-.011,0a5.551,5.551,0,0,0-.833-.069,5.673,5.673,0,0,0-2.984.847,1.185,1.185,0,0,0-.419,1.065v6.326a.446.446,0,0,0,.485.5h.539a.446.446,0,0,0,.485-.5v-5.868a.924.924,0,0,1,.048-.373l.015-.025a.439.439,0,0,1,.2-.185l.013-.008a3.487,3.487,0,0,1,1.615-.335c.1,0,.258.01.4.019.122.006.229.013.285.013a.443.443,0,0,0,.447-.344l0-.011a4.64,4.64,0,0,0,.052-.637A.4.4,0,0,0,495.7,269.96Z" transform="translate(-461.096 -266.395)"/><path class="a" d="M479.677,273.855l-1.145-.359c-1.206-.365-1.305-.744-1.305-1.132,0-.535.124-1.1,1.63-1.1a7.362,7.362,0,0,1,1.728.206l.013,0,.1.019a1.194,1.194,0,0,0,.222.033.41.41,0,0,0,.4-.306,2.384,2.384,0,0,0,.155-.6.481.481,0,0,0-.424-.5,9.233,9.233,0,0,0-2.175-.235c-2.093,0-3.156.864-3.156,2.565a2.33,2.33,0,0,0,1.944,2.345l1.294.394c1.271.392,1.336.665,1.336,1.08,0,.6-.21,1.156-1.73,1.156a6.247,6.247,0,0,1-1.994-.271l-.067-.023a1.136,1.136,0,0,0-.333-.082.461.461,0,0,0-.438.336,1.687,1.687,0,0,0-.161.573.474.474,0,0,0,.338.455,7.444,7.444,0,0,0,2.62.405c2.689,0,3.255-1.4,3.255-2.582C481.784,274.793,480.977,274.256,479.677,273.855Z" transform="translate(-475.57 -266.402)"/><path class="a" d="M489.1,269.889a6.189,6.189,0,0,0-3.205.744,2.379,2.379,0,0,0-2.039-.744,9.349,9.349,0,0,0-3.6.721,1.075,1.075,0,0,0-.592,1.091v6.426a.444.444,0,0,0,.484.5h.541a.444.444,0,0,0,.484-.5v-5.835c0-.317.048-.4.061-.417l.015-.023a.692.692,0,0,1,.254-.193,4.724,4.724,0,0,1,2.055-.359c.942,0,1.088.195,1.216.516a3.405,3.405,0,0,1,.1,1v5.312a.445.445,0,0,0,.484.5h.558a.445.445,0,0,0,.484-.5V272.85c0-.073-.006-.229-.01-.375,0-.122-.008-.237-.008-.281a.624.624,0,0,1,.055-.3.635.635,0,0,1,.231-.18,5,5,0,0,1,2.066-.415c.975,0,1.12.2,1.231.51a3.849,3.849,0,0,1,.1,1.072v5.245a.446.446,0,0,0,.485.5h.556c.31,0,.468-.17.468-.5v-5.459a5.018,5.018,0,0,0-.161-1.669C491.124,270.212,490.449,269.889,489.1,269.889Z" transform="translate(-471.834 -266.395)"/><path class="a" d="M510.715,268.157a.891.891,0,0,0-.944,1.009.944.944,0,1,0,1.886-.017C511.657,268.482,511.348,268.157,510.715,268.157Z" transform="translate(-444.401 -267.973)"/><path class="a" d="M499.013,278.318c-1.011-.05-1.487-.2-1.7-.558a2.762,2.762,0,0,1-.237-1.4V272.45h1.663a.464.464,0,0,0,.516-.484v-.426a.464.464,0,0,0-.516-.485h-1.663v-1.7c0-.464-.283-.533-.451-.533h-.558c-.1,0-.413.038-.451.52-.033.923-.044,1.46-.048,1.709h-.877a.466.466,0,0,0-.484.5v.426a.435.435,0,0,0,.451.468h.893v3.844a3.838,3.838,0,0,0,.562,2.533c.615.726,1.489.868,2.791.868a.445.445,0,0,0,.516-.4c.015-.143.032-.365.032-.506A.421.421,0,0,0,499.013,278.318Z" transform="translate(-458.588 -267.364)"/><path class="a" d="M517.474,277.15a1.357,1.357,0,0,0-.312.052l-.149.034-.01,0a6.773,6.773,0,0,1-1.76.191c-1.8,0-2.154-1.139-2.154-3.106,0-1.925.384-3.041,2.351-3.041a6.6,6.6,0,0,1,1.351.126,2,2,0,0,0,.485.088.412.412,0,0,0,.409-.315,2.65,2.65,0,0,0,.122-.612.464.464,0,0,0-.411-.48,8.262,8.262,0,0,0-1.908-.218c-2.752,0-3.926,1.38-3.926,4.616,0,3,1.109,4.335,3.6,4.335a7.454,7.454,0,0,0,2.433-.354.467.467,0,0,0,.363-.491,2.257,2.257,0,0,0-.126-.552A.357.357,0,0,0,517.474,277.15Z" transform="translate(-442.767 -266.411)"/><path class="a" d="M522.357,274.721c.166-.139.18-.348.18-.627,0-2.311-.245-4.222-3.238-4.222-2.645,0-3.878,1.43-3.878,4.5,0,3.159,1.133,4.45,3.911,4.45a7.262,7.262,0,0,0,2.638-.422.493.493,0,0,0,.371-.455,2.034,2.034,0,0,0-.143-.57l-.006-.015a.415.415,0,0,0-.384-.26,1.705,1.705,0,0,0-.476.09,6.513,6.513,0,0,1-1.867.239c-1.558,0-2.422-.417-2.481-2.573h4.939A.667.667,0,0,0,522.357,274.721Zm-1.317-1.177h-4.052c.092-1.627.747-2.294,2.229-2.294,1.529,0,1.827.755,1.827,2.057C521.044,273.4,521.044,273.475,521.04,273.544Z" transform="translate(-439.252 -266.411)"/><path class="a" d="M503.005,269.872a3.706,3.706,0,0,0-2.739.864,4.888,4.888,0,0,0-1.072,3.6c0,1.755.283,2.888.891,3.568a3.5,3.5,0,0,0,2.806.916c2.813,0,3.811-1.185,3.811-4.532C506.7,270.533,505.509,269.872,503.005,269.872Zm-.082,7.557c-1.5,0-2.2-.31-2.2-3.138,0-2.529.791-3.008,2.253-3.008,1.554,0,2.189.279,2.189,3.073C505.161,277.125,504.444,277.429,502.923,277.429Z" transform="translate(-454.041 -266.411)"/><path class="a" d="M516.568,270.006h-4.834v-.029h-1.508v.029h-3.7v-.029H505v.029h-.86a.452.452,0,0,0-.484.5v.426a.422.422,0,0,0,.466.468H505v6.629a.452.452,0,0,0,.484.518h.558a.461.461,0,0,0,.484-.5V271.4h3.7v6.629c0,.344.157.518.466.518h.573a.455.455,0,0,0,.468-.5V271.4h3.809v6.646a.444.444,0,0,0,.484.5h.541a.446.446,0,0,0,.485-.5v-7.491A.483.483,0,0,0,516.568,270.006Z" transform="translate(-449.977 -266.315)"/><path class="a" d="M505.881,271.429a2.536,2.536,0,0,1,.224-1.309c.281-.453.491-.614,1.749-.682a.439.439,0,0,0,.474-.484,4.8,4.8,0,0,0-.017-.493c-.032-.4-.405-.4-.566-.4a2.924,2.924,0,0,0-3.389,3.352v.31h1.525Z" transform="translate(-449.336 -268.061)"/><path class="a" d="M508.617,271.723v-.294a2.565,2.565,0,0,1,.222-1.309c.281-.453.493-.614,1.749-.682a.441.441,0,0,0,.476-.484,4.323,4.323,0,0,0-.019-.493c-.033-.4-.405-.4-.564-.4a2.924,2.924,0,0,0-3.389,3.352v.31h1.525Z" transform="translate(-446.843 -268.061)"/></g><path class="b" d="M465.285,289.492a12.047,12.047,0,0,0,18.095-7.909.841.841,0,0,0-.487-.929l-10.512-4.729a.25.25,0,0,0-.233.04,2.842,2.842,0,0,1-4.683-2.643,2.842,2.842,0,0,1,5.636.531.214.214,0,0,0,.122.193l9.654,4.339a.484.484,0,0,0,.671-.5,12.149,12.149,0,0,0-.262-1.523,12.063,12.063,0,0,0-23.548.455.841.841,0,0,0,.491.925l10.512,4.727a.205.205,0,0,0,.229-.04,2.846,2.846,0,1,1-.954,2.116.219.219,0,0,0-.122-.2l-9.648-4.331a.479.479,0,0,0-.671.5,11.952,11.952,0,0,0,5.709,8.974Zm20.048-13.628a13.913,13.913,0,0,1,.388,3.8,12.453,12.453,0,0,1-.237,2.158,14.169,14.169,0,0,1-27.693.717,13.886,13.886,0,0,1-.39-3.811,13.552,13.552,0,0,1,.235-2.158,14.169,14.169,0,0,1,27.7-.707Zm-12.212,9.775a1.129,1.129,0,1,0-1.363-.831A1.124,1.124,0,0,0,473.121,285.638Zm-2.592-10.7a1.131,1.131,0,1,0-1.363-.831A1.129,1.129,0,0,0,470.53,274.943Z" transform="translate(-457.391 -265.019)"/></g><g transform="translate(386.465 264.477)"><path class="c" d="M425.907,282.076c1.053-4.251,2.1-8.481,3.146-12.718h4.02l-.31,1.244.046.019.168-.161a5.1,5.1,0,0,1,2.116-1.325,4.472,4.472,0,0,1,2.487-.029,1.6,1.6,0,0,1,1.16,1.078c.073.216.138.436.216.684.075-.086.134-.149.189-.214a4.417,4.417,0,0,1,2.781-1.611c.315-.048.638-.017.958-.034a2.626,2.626,0,0,1,1.078.2,1.637,1.637,0,0,1,1.175,1.659,6.141,6.141,0,0,1-.226,1.634q-1.144,4.65-2.292,9.3c-.021.09-.05.182-.076.283h-4.18c.011-.076.017-.138.031-.195q1.026-4.157,2.055-8.316a2,2,0,0,0,.08-.759.632.632,0,0,0-.843-.568,1.718,1.718,0,0,0-.908.6,2.313,2.313,0,0,0-.438.9l-2.007,8.079c-.019.078-.04.155-.061.229-.191.061-3.972.065-4.2,0,.115-.464.227-.931.344-1.4q.9-3.607,1.8-7.217a3.956,3.956,0,0,0,.09-.495.674.674,0,0,0-.78-.742,1.457,1.457,0,0,0-1.042.74,2.54,2.54,0,0,0-.283.682q-1.015,4.063-2.016,8.129c-.027.107-.055.212-.084.323Z" transform="translate(-350.52 -260.405)"/><path class="c" d="M393.917,283.933l8.465-17.007h5.063c.057,5.658.042,11.313.1,16.957-.21.061-4.32.071-4.608.013l.227-2.781c-.18-.052-3.066-.069-3.452-.023-.031.071-.069.149-.1.229-.336.8-.677,1.592-1,2.391a.309.309,0,0,1-.336.224c-1.353-.008-2.706,0-4.06,0Zm10.05-13.018-.059-.011c-.021.05-.046.1-.067.147q-1.35,3.257-2.7,6.516l.008.023.011.017a19.334,19.334,0,0,0,2.311-.025Q403.717,274.256,403.967,270.915Z" transform="translate(-379.674 -262.245)"/><path class="c" d="M422.231,272.372l1.361-5.445h4.2c-.336,1.432-.7,2.836-1.045,4.247s-.7,2.84-1.055,4.26-.7,2.825-1.051,4.237-.7,2.823-1.049,4.224c-.258.055-3.834.048-4.027-.008l.294-1.225-.036-.015c-.046.052-.092.105-.136.159a3.84,3.84,0,0,1-2.15,1.359,4.176,4.176,0,0,1-1.623.038,2.229,2.229,0,0,1-1.69-1.315,4.417,4.417,0,0,1-.369-1.749,10.294,10.294,0,0,1,.233-2.383,27.159,27.159,0,0,1,1.055-4.035,9.239,9.239,0,0,1,.837-1.776,5.047,5.047,0,0,1,2.129-1.883,2.52,2.52,0,0,1,1.7-.214,1.982,1.982,0,0,1,.722.313c.484.34.963.686,1.447,1.028C422.053,272.242,422.122,272.294,422.231,272.372Zm-.749,2.716a5.189,5.189,0,0,0-.048-.571.633.633,0,0,0-.48-.514,1.089,1.089,0,0,0-.959.164,1.789,1.789,0,0,0-.638.793,5.729,5.729,0,0,0-.235.7c-.25.992-.484,1.99-.734,2.982a6.854,6.854,0,0,0-.174,1.449,1.088,1.088,0,0,0,.2.656.6.6,0,0,0,.64.277,1.193,1.193,0,0,0,.875-.531,5.167,5.167,0,0,0,.443-.847,15.087,15.087,0,0,0,.726-2.483A18,18,0,0,0,421.482,275.088Z" transform="translate(-361.51 -262.244)"/><path class="c" d="M434.784,286.131l.692-2.812c.1,0,.193,0,.287,0,.369-.013.74,0,1.1-.046a1.693,1.693,0,0,0,1.017-.545.766.766,0,0,0,.182-.354,2.7,2.7,0,0,0,.061-.619q-.054-2.678-.124-5.354-.086-3.432-.172-6.866c0-.119,0-.237,0-.373h4.381q-.381,4.091-.759,8.175l.057.013,3.24-8.19h4.209c-.034.084-.059.149-.09.21q-3.3,6.588-6.6,13.177a11.6,11.6,0,0,1-1.063,1.768,8.054,8.054,0,0,1-.652.768,3.933,3.933,0,0,1-2.54,1.16,11.9,11.9,0,0,1-1.846-.021c-.377-.019-.751-.048-1.128-.073Z" transform="translate(-342.43 -260.207)"/><path class="c" d="M413.178,273.218h-3.842c.025-.111.04-.2.067-.294a5.108,5.108,0,0,1,3.609-3.656,6.616,6.616,0,0,1,1.579-.283,12.321,12.321,0,0,1,2.158-.01,5.126,5.126,0,0,1,1.493.334,2.085,2.085,0,0,1,1.363,1.919,5.82,5.82,0,0,1-.222,1.85q-.886,3.538-1.766,7.076a7.794,7.794,0,0,0-.172,1.644c0,.086,0,.174,0,.254-.191.065-3.687.076-3.951.017a5.164,5.164,0,0,1,.084-1.313c-.057.055-.092.084-.12.117a4.121,4.121,0,0,1-2.479,1.4,4.752,4.752,0,0,1-1.481.065,2.066,2.066,0,0,1-1.9-1.833,4.094,4.094,0,0,1,.1-1.948c.141-.474.292-.948.478-1.4a3.553,3.553,0,0,1,1.688-1.835,9.348,9.348,0,0,1,2.276-.812c.724-.166,1.443-.361,2.169-.52a1.549,1.549,0,0,0,1.277-1.428.777.777,0,0,0-.763-1.024,1.092,1.092,0,0,0-1.139.5,7.053,7.053,0,0,0-.424.91A2.227,2.227,0,0,0,413.178,273.218Zm1.579,2.617c-.468.183-.9.338-1.326.528a4.784,4.784,0,0,0-.856.472,2.024,2.024,0,0,0-.8,1.919.8.8,0,0,0,.757.766,1.171,1.171,0,0,0,.755-.185,1.785,1.785,0,0,0,.552-.556,3.721,3.721,0,0,0,.484-1.091c.151-.562.285-1.13.424-1.7A.946.946,0,0,0,414.757,275.835Z" transform="translate(-367.273 -260.418)"/><path class="c" d="M431.047,276.365H424.9c-.029.084-.055.149-.073.218-.132.52-.254,1.042-.4,1.558a3.477,3.477,0,0,0-.107.95.647.647,0,0,0,.663.7,1.4,1.4,0,0,0,1.284-.608,2.569,2.569,0,0,0,.388-.9c.05-.2.1-.4.155-.615h3.9a1.142,1.142,0,0,1-.023.128,6.772,6.772,0,0,1-1.7,2.993,4.954,4.954,0,0,1-2.873,1.426,12.656,12.656,0,0,1-2.25.147,6.063,6.063,0,0,1-1.466-.222,2.689,2.689,0,0,1-2.038-2.353,7.269,7.269,0,0,1,.011-2.106,17.011,17.011,0,0,1,1.191-4.436,9.189,9.189,0,0,1,1.309-2.227,5.118,5.118,0,0,1,3.2-1.919,9.181,9.181,0,0,1,3.389-.029,4.41,4.41,0,0,1,.442.117,2.522,2.522,0,0,1,1.833,2.131,6.485,6.485,0,0,1-.015,1.961,27.342,27.342,0,0,1-.636,2.953A1.158,1.158,0,0,1,431.047,276.365Zm-3.287-2.313c.067-.317.143-.627.2-.94a5.1,5.1,0,0,0,.088-.761.648.648,0,0,0-.361-.633,1.025,1.025,0,0,0-1.212.082,2.093,2.093,0,0,0-.541.7,6.069,6.069,0,0,0-.48,1.428.559.559,0,0,0,0,.128Z" transform="translate(-355.635 -260.421)"/><path class="a" d="M394.2,270.648h-3.32c-.021-.2.707-3.259.879-3.725H402.8l-.937,3.725h-3.19l-3.291,13.284h-4.463C392.013,279.5,393.1,275.1,394.2,270.648Z" transform="translate(-382.443 -262.248)"/><path class="c" d="M408.821,276.761h3.805a.555.555,0,0,1,0,.113,8.956,8.956,0,0,1-1.208,2.989,5.158,5.158,0,0,1-3.561,2.345,10.362,10.362,0,0,1-2.917.151,4.585,4.585,0,0,1-1.414-.348,2.694,2.694,0,0,1-1.59-2.034,6.025,6.025,0,0,1-.076-1.888,16.92,16.92,0,0,1,1.33-5.036,8.121,8.121,0,0,1,1.636-2.525,5.26,5.26,0,0,1,3.245-1.56c.514-.063,1.034-.1,1.554-.124a6.6,6.6,0,0,1,2.047.2,2.393,2.393,0,0,1,1.885,2.248,6.719,6.719,0,0,1-.076,1.816c-.044.3-.1.6-.159.9a.915.915,0,0,1-.042.12h-3.846c.027-.147.055-.285.078-.422.055-.356.115-.711.157-1.068a1.305,1.305,0,0,0-.027-.4.756.756,0,0,0-1.03-.6,1.729,1.729,0,0,0-.826.594,3.264,3.264,0,0,0-.482.908,27.224,27.224,0,0,0-.86,3c-.14.591-.252,1.189-.356,1.787-.044.258-.027.528-.053.789a.873.873,0,0,0,1.3.849,1.707,1.707,0,0,0,.745-.659,4.009,4.009,0,0,0,.487-1.143C408.653,277.434,408.731,277.107,408.821,276.761Z" transform="translate(-372.471 -260.505)"/><path class="a" d="M390.938,283.938h-4.473q2.1-8.524,4.193-17.015h4.474Q393.031,275.444,390.938,283.938Z" transform="translate(-386.465 -262.248)"/><path class="a" d="M402.127,282.06h-.612L402.1,279h-1.451l-.592,3.068h-.6c.172-1.028.388-2.032.566-3.066l-.459-.034.08-.449.48-.021c.023-.1.046-.2.069-.3a2.032,2.032,0,0,1,.52-1.011,1.216,1.216,0,0,1,1.46-.2c-.031.067-.061.138-.094.206s-.071.143-.113.227c-.065-.019-.124-.038-.183-.054a.646.646,0,0,0-.757.268,1.7,1.7,0,0,0-.266.851h1.426c.044-.17.076-.342.13-.507a1.635,1.635,0,0,1,1.118-1.158,1.881,1.881,0,0,1,1.11.023c.067.021.13.057.214.094l-.187.466a1.309,1.309,0,0,0-1.325.073,1.346,1.346,0,0,0-.407,1.022c.306.012.614,0,.923.006h.969l-.679,3.557h-.615l.57-3.029a5.034,5.034,0,0,0-1.3-.027Z" transform="translate(-374.625 -253.296)"/><path class="a" d="M432.4,268.859c.191-1.432.533-2.821.774-4.243.172,0,.315,0,.459,0a.986.986,0,0,1,.141.023c-.325,1.714-.65,3.416-.975,5.13h-.644c-.537-1.424-1.214-2.812-1.644-4.323l-.8,4.323h-.608l.973-5.128a2.493,2.493,0,0,1,.629-.021c.034,0,.078.044.105.076a.438.438,0,0,1,.05.109c.367.914.743,1.823,1.1,2.739.151.388.264.789.392,1.185Z" transform="translate(-347.602 -264.354)"/><path class="a" d="M433.406,270.477l.159-.457c.277.065.535.145.8.182a1.2,1.2,0,0,0,1.376-.791A4.428,4.428,0,0,0,436,268.4c-.109.122-.18.208-.256.287a1.354,1.354,0,0,1-1.242.424,1.107,1.107,0,0,1-.9-1.028,2.484,2.484,0,0,1,1.779-2.68,2.642,2.642,0,0,1,1.747.21c-.057.313-.115.633-.176.952-.159.833-.313,1.667-.484,2.5a3.392,3.392,0,0,1-.208.636,1.558,1.558,0,0,1-1.212.982,2.719,2.719,0,0,1-1.328-.065A3.207,3.207,0,0,1,433.406,270.477Zm3.024-4.5a1.383,1.383,0,0,0-1.628.338,2,2,0,0,0-.543,1.349,1.692,1.692,0,0,0,.067.518.589.589,0,0,0,.552.428.829.829,0,0,0,.6-.189,1.9,1.9,0,0,0,.656-.982c.053-.174.084-.357.12-.537C436.315,266.6,436.37,266.3,436.43,265.98Z" transform="translate(-343.686 -263.696)"/><path class="a" d="M396.8,279.955a3.792,3.792,0,0,1,.721-2.091,2.36,2.36,0,0,1,2.368-.946,1.66,1.66,0,0,1,1.418,1.462,3.428,3.428,0,0,1-.575,2.6,2.318,2.318,0,0,1-2.387,1,1.641,1.641,0,0,1-1.388-1.208A6.1,6.1,0,0,1,396.8,279.955Zm3.913-1.032c-.006-.094-.008-.229-.027-.363a1.225,1.225,0,0,0-1.516-1.143,1.656,1.656,0,0,0-1.175.791,3.155,3.155,0,0,0-.482,1.292,2.461,2.461,0,0,0,.048,1.068,1.233,1.233,0,0,0,1.428.921,1.654,1.654,0,0,0,1.275-.875A3.458,3.458,0,0,0,400.715,278.923Z" transform="translate(-377.044 -253.169)"/><path class="a" d="M391.6,278.373c.071-.086.118-.149.17-.208a1.476,1.476,0,0,1,1.133-.539.816.816,0,0,1,.862.787,2.6,2.6,0,0,1-.029.621c-.117.679-.25,1.353-.377,2.028-.013.063-.031.122-.048.2h-.593c.071-.375.136-.734.2-1.093s.141-.705.2-1.061a2.106,2.106,0,0,0,.015-.526.45.45,0,0,0-.478-.44.8.8,0,0,0-.572.21,1.74,1.74,0,0,0-.581,1.024c-.117.571-.222,1.147-.333,1.718-.011.054-.029.107-.046.168h-.575c.053-.294.105-.575.159-.854.08-.424.166-.847.241-1.273a2.351,2.351,0,0,0,.031-.478.5.5,0,0,0-.711-.484,1.207,1.207,0,0,0-.4.252,1.9,1.9,0,0,0-.57,1.086c-.1.528-.2,1.053-.294,1.581-.01.054-.029.107-.046.17h-.581l.658-3.546h.51l-.069.631c.1-.111.17-.185.241-.258a1.41,1.41,0,0,1,1-.463.759.759,0,0,1,.847.646A.907.907,0,0,0,391.6,278.373Z" transform="translate(-384.722 -252.495)"/><path class="a" d="M441.44,265.426h.549l-.084.656c.075-.078.12-.122.162-.17a1.64,1.64,0,0,1,.86-.539,1.083,1.083,0,0,1,1.412.923,2.567,2.567,0,0,1-.977,2.513,1.855,1.855,0,0,1-1.816.3l-.09-.031H441.4l-.3,1.562h-.627C440.794,268.9,441.115,267.168,441.44,265.426Zm.734,3.31a1.28,1.28,0,0,0,.831-.355,2.209,2.209,0,0,0,.675-1.242,1.555,1.555,0,0,0-.013-.784.665.665,0,0,0-.87-.457,1.225,1.225,0,0,0-.6.424,2.138,2.138,0,0,0-.443.9c-.086.38-.149.766-.231,1.151a.167.167,0,0,0,.12.222C441.82,268.647,442,268.689,442.174,268.737Z" transform="translate(-337.249 -263.697)"/><path class="a" d="M433.168,267.252c-.212.195-.405.361-.577.545a.549.549,0,0,0-.088.268c-.1.526-.2,1.053-.3,1.579-.008.04-.023.076-.038.128h-.617q.487-2.569.971-5.109a1.3,1.3,0,0,1,.623-.021c-.128.81-.3,1.611-.451,2.458.065-.053.107-.08.141-.115.682-.73,1.368-1.46,2.045-2.2a.469.469,0,0,1,.417-.174c.157.013.315,0,.485.027a9.24,9.24,0,0,1-.679.734c-.239.247-.482.491-.722.738l-.713.73c.438.977.873,1.944,1.317,2.934h-.688Z" transform="translate(-345.382 -264.355)"/><path class="a" d="M423.249,264.477h.627l-.478,2.362.172-.184a1.554,1.554,0,0,1,.826-.5,1.075,1.075,0,0,1,1.4.958,2.584,2.584,0,0,1-.963,2.431,1.983,1.983,0,0,1-1.69.415.826.826,0,0,1-.755-.919,7.832,7.832,0,0,1,.159-1.089c.216-1.1.441-2.21.663-3.314C423.218,264.586,423.232,264.542,423.249,264.477Zm1.93,3a2.97,2.97,0,0,0-.1-.411.621.621,0,0,0-.745-.413,1.14,1.14,0,0,0-.47.216,2.1,2.1,0,0,0-.447.524,3.658,3.658,0,0,0-.4,1.468.712.712,0,0,0,.006.143.483.483,0,0,0,.48.474,1.178,1.178,0,0,0,.98-.354A2.394,2.394,0,0,0,425.179,267.482Z" transform="translate(-353.728 -264.477)"/><path class="a" d="M420.933,281.209l-.289,1.5h-.6l.935-5h.526l-.067.612c.086-.086.136-.132.183-.182a1.685,1.685,0,0,1,.675-.443,1.073,1.073,0,0,1,1.5.906,2.464,2.464,0,0,1-.958,2.355,1.837,1.837,0,0,1-1.749.289l-.115-.036Zm.1-.564a1.13,1.13,0,0,0,1.433-.076,2.1,2.1,0,0,0,.713-1.734.891.891,0,0,0-.057-.256.622.622,0,0,0-.667-.436.9.9,0,0,0-.522.22,1.728,1.728,0,0,0-.6.906C421.214,279.722,421.132,280.188,421.034,280.645Z" transform="translate(-355.863 -252.497)"/><path class="a" d="M417.84,282.023h-.612c.333-1.745.663-3.471.994-5.206a1.9,1.9,0,0,1,.617-.012l-.415,2.187c.115,0,.145-.088.195-.138a1.47,1.47,0,0,1,1.047-.464.825.825,0,0,1,.9.772,2.562,2.562,0,0,1-.027.715c-.113.663-.248,1.321-.377,1.98a1.458,1.458,0,0,1-.05.168h-.6c.069-.359.138-.7.2-1.045.08-.44.161-.879.229-1.323a1.127,1.127,0,0,0-.013-.357.457.457,0,0,0-.424-.39.846.846,0,0,0-.629.184,1.728,1.728,0,0,0-.679,1.07c-.12.571-.222,1.147-.331,1.72C417.863,281.922,417.853,281.96,417.84,282.023Z" transform="translate(-358.43 -253.259)"/><path class="a" d="M436.661,267.648a2.448,2.448,0,0,1,.78-1.808,1.794,1.794,0,0,1,1.619-.47,1.274,1.274,0,0,1,.977.8,1.934,1.934,0,0,1,.1,1.13,2.4,2.4,0,0,1-.807,1.46,1.778,1.778,0,0,1-1.472.432,1.366,1.366,0,0,1-1.181-1.265C436.667,267.839,436.667,267.751,436.661,267.648Zm2.85-.723a1.275,1.275,0,0,0-.138-.65.754.754,0,0,0-.673-.43.98.98,0,0,0-.778.308,2.016,2.016,0,0,0-.562,1.831.845.845,0,0,0,1.369.543,1.618,1.618,0,0,0,.371-.369A2.176,2.176,0,0,0,439.511,266.925Z" transform="translate(-340.72 -263.697)"/><path class="a" d="M394.418,281.262h-.541a4.971,4.971,0,0,1,.021-.835c-.054.067-.09.115-.128.159-.136.155-.266.319-.415.463a1.128,1.128,0,0,1-.554.269,1.038,1.038,0,0,1-1.3-1.005,2.49,2.49,0,0,1,2.835-2.668c.2.023.388.069.608.107-.118.606-.227,1.177-.34,1.747A8.752,8.752,0,0,0,394.418,281.262Zm-.164-3.087a1.43,1.43,0,0,0-1.3.241,2.028,2.028,0,0,0-.776,1.231,1.494,1.494,0,0,0,0,.757.57.57,0,0,0,.745.413,1.12,1.12,0,0,0,.5-.317,2.007,2.007,0,0,0,.531-.925C394.067,279.121,394.151,278.657,394.254,278.175Z" transform="translate(-381.884 -252.497)"/><path class="a" d="M427.908,265.383c-.036.086-.057.138-.08.187-.464.938-.919,1.883-1.4,2.814a13,13,0,0,1-.749,1.254,2.884,2.884,0,0,1-.963.921c-.159.09-.331.155-.528.245l-.17-.55a.907.907,0,0,1,.117-.063,2.451,2.451,0,0,0,1.189-1,.567.567,0,0,0,.08-.476c-.229-1.053-.453-2.108-.679-3.165-.01-.046-.011-.094-.019-.157h.646q.264,1.433.531,2.869a.031.031,0,0,0,.021,0l.019-.006a.283.283,0,0,0,.038-.059l1.267-2.77.015-.017.027-.027Z" transform="translate(-352.243 -263.651)"/><path class="a" d="M441.467,269.07h-.529l.057-.631c-.084.084-.14.136-.191.191a1.615,1.615,0,0,1-.946.526.911.911,0,0,1-1.128-.9,3.308,3.308,0,0,1,.05-.74c.122-.694.262-1.382.4-2.074a.483.483,0,0,1,.031-.055h.6c-.048.266-.092.516-.138.766-.1.526-.2,1.053-.285,1.581a1.343,1.343,0,0,0,0,.428.523.523,0,0,0,.638.462,1.019,1.019,0,0,0,.55-.273,1.8,1.8,0,0,0,.564-.984c.119-.579.224-1.162.336-1.743.015-.076.034-.155.054-.239h.623C441.922,266.616,441.7,267.83,441.467,269.07Z" transform="translate(-338.838 -263.649)"/><path class="a" d="M389.826,277.151l-.22.487a1.643,1.643,0,0,0-.967-.212,1.325,1.325,0,0,0-.455.128.751.751,0,0,0-.14,1.277,4.843,4.843,0,0,0,.478.321c.128.082.262.155.386.243a1.394,1.394,0,0,1,.048,2.217,1.706,1.706,0,0,1-.636.325,2.444,2.444,0,0,1-1.51-.075c-.109-.042-.212-.1-.338-.164l.222-.508a2.115,2.115,0,0,0,.965.3,1.294,1.294,0,0,0,.74-.162.852.852,0,0,0,.155-1.386,4.137,4.137,0,0,0-.47-.331c-.17-.117-.354-.218-.514-.35a1.255,1.255,0,0,1-.076-1.871,1.785,1.785,0,0,1,1.33-.508A1.819,1.819,0,0,1,389.826,277.151Z" transform="translate(-386.459 -253.171)"/><path class="a" d="M427.064,277.111l-.191.459a8.223,8.223,0,0,0-.847-.141,2.084,2.084,0,0,0-2.106,1.286,2.651,2.651,0,0,0-.178,1.735,1.277,1.277,0,0,0,1.177,1.028,2.731,2.731,0,0,0,1.183-.126c.044-.015.088-.027.159-.048l.08.463a1.679,1.679,0,0,1-.64.2,3.172,3.172,0,0,1-1.216-.006,1.722,1.722,0,0,1-1.384-1.34,3.03,3.03,0,0,1,1.917-3.59,2.935,2.935,0,0,1,1.609-.075A4.117,4.117,0,0,1,427.064,277.111Z" transform="translate(-353.154 -253.174)"/><path class="a" d="M408,281.26h-.6l.661-3.542h.524l-.067.654.18-.2a1.506,1.506,0,0,1,1.156-.545.826.826,0,0,1,.885.766,2.257,2.257,0,0,1-.017.642c-.122.7-.264,1.4-.4,2.1-.008.04-.023.076-.038.128h-.594c.013-.1.025-.187.042-.277.115-.6.239-1.208.344-1.814a2.2,2.2,0,0,0,.029-.572.465.465,0,0,0-.491-.457.862.862,0,0,0-.6.214,1.922,1.922,0,0,0-.684,1.2c-.1.51-.193,1.021-.291,1.531C408.034,281.14,408.016,281.193,408,281.26Z" transform="translate(-367.387 -252.495)"/><path class="a" d="M427.476,281.257h-.608l.661-3.54h.526l-.069.658.178-.2a1.506,1.506,0,0,1,1.133-.545.843.843,0,0,1,.921.862,4.719,4.719,0,0,1-.092.879c-.1.591-.222,1.179-.336,1.768-.008.038-.021.075-.034.124h-.6c.013-.09.023-.166.038-.243.124-.667.258-1.334.371-2a1.5,1.5,0,0,0-.019-.522.426.426,0,0,0-.409-.344.824.824,0,0,0-.608.174,1.837,1.837,0,0,0-.713,1.158c-.1.5-.189.99-.285,1.485C427.518,281.058,427.5,281.151,427.476,281.257Z" transform="translate(-349.644 -252.495)"/><path class="a" d="M414.342,277.711h.52l-.057.646.187-.2a1.5,1.5,0,0,1,1.164-.528.826.826,0,0,1,.864.787,2.614,2.614,0,0,1-.029.669c-.113.654-.243,1.3-.369,1.955-.013.069-.032.138-.054.22h-.606c.09-.472.176-.925.262-1.38.052-.268.111-.533.151-.8a2.011,2.011,0,0,0,.017-.455.483.483,0,0,0-.52-.482.906.906,0,0,0-.629.258,1.917,1.917,0,0,0-.625,1.132c-.1.51-.193,1.021-.29,1.531-.011.063-.029.124-.046.2h-.6Z" transform="translate(-361.664 -252.495)"/><path class="a" d="M430.8,279.7c0,.141-.008.245,0,.348a.806.806,0,0,0,.864.8,1.824,1.824,0,0,0,.747-.141l.226-.09.09.443c-.1.046-.193.094-.289.13a2.472,2.472,0,0,1-.942.147,1.239,1.239,0,0,1-1.311-1.246,2.4,2.4,0,0,1,.851-2.049,1.562,1.562,0,0,1,1.451-.377.829.829,0,0,1,.675.669.9.9,0,0,1-.329.942,1.45,1.45,0,0,1-.7.3c-.355.055-.715.078-1.072.113C430.992,279.706,430.913,279.7,430.8,279.7Zm.111-.5a2.84,2.84,0,0,0,1.315-.145.933.933,0,0,0,.218-.143.443.443,0,0,0-.191-.77.927.927,0,0,0-.422,0A1.338,1.338,0,0,0,430.915,279.2Z" transform="translate(-346.622 -252.497)"/><path class="a" d="M425.758,279.71a.865.865,0,0,0,.8,1.143,1.851,1.851,0,0,0,.774-.136c.073-.029.145-.055.241-.092l.084.434c-.073.038-.14.08-.21.109a2.486,2.486,0,0,1-1.248.155,1.159,1.159,0,0,1-1-.82,1.9,1.9,0,0,1-.059-.948,2.411,2.411,0,0,1,.916-1.579,1.563,1.563,0,0,1,1.357-.308.837.837,0,0,1,.686.686.9.9,0,0,1-.365.952,1.518,1.518,0,0,1-.68.283c-.356.052-.715.075-1.072.109C425.909,279.706,425.831,279.708,425.758,279.71Zm.059-.493a3.7,3.7,0,0,0,1.1-.086,1.451,1.451,0,0,0,.375-.151.464.464,0,0,0,.231-.51.445.445,0,0,0-.426-.357.923.923,0,0,0-.7.2A1.68,1.68,0,0,0,425.818,279.217Z" transform="translate(-351.245 -252.496)"/><path class="a" d="M411.363,279.7a.863.863,0,0,0,.816,1.154,1.869,1.869,0,0,0,.751-.134l.241-.1.086.442c-.09.042-.166.086-.247.115a2.506,2.506,0,0,1-1.132.153,1.183,1.183,0,0,1-1.133-1.053,2.37,2.37,0,0,1,.965-2.339,1.5,1.5,0,0,1,1.319-.268.83.83,0,0,1,.669.675.9.9,0,0,1-.338.94,1.5,1.5,0,0,1-.7.3c-.346.053-.7.078-1.047.111C411.535,279.707,411.455,279.7,411.363,279.7Zm.048-.476a3.372,3.372,0,0,0,1.367-.18.7.7,0,0,0,.214-.149.439.439,0,0,0-.2-.753.851.851,0,0,0-.443.006A1.442,1.442,0,0,0,411.411,279.224Z" transform="translate(-364.362 -252.498)"/><path class="a" d="M404.706,279.7a.868.868,0,0,0,.873,1.156,2.165,2.165,0,0,0,.933-.239l.094.443a2.359,2.359,0,0,1-.231.115,2.5,2.5,0,0,1-1.13.161,1.207,1.207,0,0,1-1.168-1.13,2.413,2.413,0,0,1,.757-2.087,1.589,1.589,0,0,1,1.521-.449.821.821,0,0,1,.682.659.907.907,0,0,1-.357.979,1.54,1.54,0,0,1-.68.283c-.338.05-.682.076-1.024.109C404.889,279.706,404.8,279.7,404.706,279.7Zm.05-.474a3.583,3.583,0,0,0,1.286-.151.861.861,0,0,0,.3-.189.441.441,0,0,0-.193-.745.829.829,0,0,0-.711.109A1.622,1.622,0,0,0,404.756,279.224Z" transform="translate(-370.43 -252.496)"/><path class="a" d="M428.214,264.621c-.292,1.537-.583,3.054-.877,4.606h2.081l-.1.533H426.6c.327-1.72.652-3.427.977-5.14Z" transform="translate(-349.888 -264.346)"/><path class="a" d="M409.592,278.583l.1-.463h.5c.044-.222.094-.422.122-.625a.231.231,0,0,1,.226-.229c.138-.021.275-.063.445-.1l-.172.952h.851l-.1.482h-.837a1.873,1.873,0,0,0-.057.193c-.113.589-.227,1.177-.335,1.766a1.893,1.893,0,0,0-.025.359.286.286,0,0,0,.308.321c.094.008.191,0,.313,0l-.027.466a1.386,1.386,0,0,1-.854-.012.552.552,0,0,1-.365-.543,5.2,5.2,0,0,1,.076-.809c.09-.512.2-1.021.3-1.529.011-.055.013-.111.023-.195Z" transform="translate(-365.389 -252.916)"/><path class="a" d="M396.257,281.236l.021.034c0,.5.034.459-.463.491a1.007,1.007,0,0,1-.239-.017.6.6,0,0,1-.539-.608,3.988,3.988,0,0,1,.069-.738c.09-.512.2-1.019.3-1.529.015-.076.023-.157.038-.258l-.5-.025.094-.463h.508c.044-.229.086-.43.12-.635.021-.122.067-.2.206-.22s.279-.065.461-.107l-.164.96h.849l-.1.476h-.856c-.067.342-.132.661-.193.982-.063.336-.128.675-.185,1.013a1.5,1.5,0,0,0-.023.334.284.284,0,0,0,.3.306C396.058,281.244,396.154,281.236,396.257,281.236Z" transform="translate(-378.738 -252.916)"/><path class="a" d="M430.421,281.236l-.038.468a1.419,1.419,0,0,1-.828-.006.558.558,0,0,1-.386-.554,5.222,5.222,0,0,1,.076-.809c.09-.512.2-1.021.3-1.529a1.87,1.87,0,0,0,.021-.193l-.5-.032.092-.449h.5c.046-.22.1-.419.126-.621.019-.149.076-.229.231-.248.14-.017.275-.059.443-.1l-.176.95h.856l-.1.482h-.837c-.023.075-.048.134-.059.193-.111.573-.222,1.147-.325,1.72a2.073,2.073,0,0,0-.031.407c0,.21.1.3.31.317C430.2,281.242,430.3,281.236,430.421,281.236Z" transform="translate(-347.636 -252.914)"/><path class="a" d="M405.42,277.785l-.17.463-.189-.05a1.365,1.365,0,0,0-1.493.453,1.8,1.8,0,0,0-.432,1.472.778.778,0,0,0,.847.715,3.849,3.849,0,0,0,.635-.1,1.761,1.761,0,0,0,.218-.075l.059.476a2.229,2.229,0,0,1-1.625.1,1.165,1.165,0,0,1-.78-1.084,2.306,2.306,0,0,1,.736-1.951,2,2,0,0,1,2.022-.489C405.3,277.73,405.349,277.757,405.42,277.785Z" transform="translate(-371.87 -252.496)"/><path class="a" d="M418.208,277.805c-.023.067-.038.128-.061.187-.031.08-.065.161-.1.248-.14-.04-.266-.084-.4-.115a.847.847,0,0,0-.541.042.5.5,0,0,0-.153.845,2.445,2.445,0,0,0,.292.208,4.157,4.157,0,0,1,.352.25,1,1,0,0,1,.05,1.472c-.023.023-.046.046-.069.067a1.673,1.673,0,0,1-1.885.082c.021-.067.044-.141.073-.212s.054-.132.08-.195c.216.061.419.13.627.168a.976.976,0,0,0,.378-.017.541.541,0,0,0,.432-.405.557.557,0,0,0-.193-.6c-.088-.071-.185-.126-.277-.189s-.189-.12-.277-.191a.957.957,0,0,1,.01-1.518,1.472,1.472,0,0,1,1.177-.285A1.03,1.03,0,0,1,418.208,277.805Z" transform="translate(-359.824 -252.495)"/><path class="a" d="M428.908,269.763h-.638l.977-5.142h.638C429.556,266.349,429.231,268.058,428.908,269.763Z" transform="translate(-348.367 -264.346)"/><path class="a" d="M407.458,276.928h.617l-.946,4.968h-.615Z" transform="translate(-368.194 -253.13)"/><path class="a" d="M436.094,269.113h-.6l.654-3.679h.524l-.078.7a6.88,6.88,0,0,1,.541-.583.853.853,0,0,1,.78-.187l-.113.6a1.148,1.148,0,0,0-1.116.743,3.74,3.74,0,0,0-.334,1.145c-.069.369-.136.738-.206,1.107A1.382,1.382,0,0,1,436.094,269.113Z" transform="translate(-341.785 -263.696)"/><path class="a" d="M432.545,281.264h-.594l.64-3.542h.5l-.055.633.032.019c.044-.061.088-.12.13-.182a1.213,1.213,0,0,1,.711-.535,2.988,2.988,0,0,1,.388-.036l-.105.587c-.031.013-.054.031-.073.029a.93.93,0,0,0-.833.436,2.447,2.447,0,0,0-.436,1.055c-.084.44-.164.881-.248,1.321C432.586,281.119,432.565,281.186,432.545,281.264Z" transform="translate(-345.012 -252.498)"/><path class="a" d="M413.128,277.7c.113,0,.231,0,.35,0a1.265,1.265,0,0,1,.149.021l-.071.665a1.325,1.325,0,0,1,1.267-.749l-.113.6a1.025,1.025,0,0,0-1.007.594,2.884,2.884,0,0,0-.348,1.015c-.078.432-.162.862-.245,1.294a.69.69,0,0,1-.036.119h-.593Z" transform="translate(-362.755 -252.492)"/><path class="a" d="M394.111,281.259h-.594l.64-3.542h.5l-.057.635a1.357,1.357,0,0,1,1.26-.721l-.1.573c-.031.011-.053.029-.075.027a.929.929,0,0,0-.831.436,2.455,2.455,0,0,0-.436,1.057c-.084.44-.164.879-.248,1.321C394.152,281.114,394.131,281.183,394.111,281.259Z" transform="translate(-380.038 -252.494)"/><path class="a" d="M443.971,269.156h.571l.451,1.317.449-1.317h.547l.143,1.858c-.08.006-.134.011-.187.011s-.109-.01-.187-.017l-.088-1.5-.031-.01-.478,1.493h-.4l-.451-1.451h-.027l-.094,1.468h-.346C443.86,270.4,443.937,269.794,443.971,269.156Z" transform="translate(-334.169 -260.213)"/><path class="a" d="M420,277.671h.615l-.684,3.544h-.615C419.544,280.028,419.77,278.854,420,277.671Z" transform="translate(-356.528 -252.453)"/><path class="a" d="M443.554,269.458h-.585v-.3c.508-.01,1.019-.01,1.544,0v.3h-.581v1.554a1.792,1.792,0,0,1-.189.019,1.87,1.87,0,0,1-.189-.01Z" transform="translate(-334.971 -260.219)"/><path class="d" d="M420.145,276.921a.353.353,0,0,1,.356.371.4.4,0,0,1-.419.424.364.364,0,0,1-.35-.382A.415.415,0,0,1,420.145,276.921Z" transform="translate(-356.148 -253.136)"/></g></g></svg>