<?xml version="1.0" encoding="utf-8"?>
<!-- Generator: Adobe Illustrator 19.0.0, SVG Export Plug-In . SVG Version: 6.00 Build 0)  -->
<svg version="1.1" id="Layer_1" xmlns="http://www.w3.org/2000/svg" xmlns:xlink="http://www.w3.org/1999/xlink" x="0px" y="0px"
	 viewBox="-950 388 18 18" style="enable-background:new -950 388 18 18;" xml:space="preserve">
<style type="text/css">
	.st0{fill:none;}
	.st1{fill:#999999;}
</style>
<path class="st0" d="M-950,388h18v18h-18V388z"/>
<path class="st1" d="M-938.4,398.5h-0.6l-0.2-0.2c0.7-0.9,1.2-2,1.2-3.2c0-2.7-2.2-4.9-4.9-4.9s-4.9,2.2-4.9,4.9s2.2,4.9,4.9,4.9
	c1.2,0,2.3-0.4,3.2-1.2l0.2,0.2v0.6l3.8,3.7l1.1-1.1L-938.4,398.5z M-942.9,398.5c-1.9,0-3.4-1.5-3.4-3.4s1.5-3.4,3.4-3.4
	s3.4,1.5,3.4,3.4S-941,398.5-942.9,398.5z"/>
</svg>
